<?xml version="1.0" encoding="utf-8"?>
<!-- Generator: Adobe Illustrator 23.0.1, SVG Export Plug-In . SVG Version: 6.00 Build 0)  -->
<svg version="1.1" id="Layer_1" xmlns="http://www.w3.org/2000/svg" xmlns:xlink="http://www.w3.org/1999/xlink" x="0px" y="0px"
	 viewBox="0 0 533.8 432.6" style="enable-background:new 0 0 533.8 432.6;" xml:space="preserve">
<style type="text/css">
	.st0{enable-background:new    ;}
	.st1{fill:#FFFFFF;}
</style>
<title>are-you-ready-for-more</title>
<g class="st0">
	<path class="st1" d="M84.5,128.1l7.2-23.5c-0.2-0.4-0.1-1.9,0.1-2.2c0-0.1,0.9-1.5,1-1.6c0.7-1.2,6.3-19.4,6.8-19.5
		c2.2-7.7,5.8-17.5,9.2-24.5c2.6-5.1,4.5-16.5,9.8-16.9c6-0.4,7.9,5,7,11.5c0,0.1,0.3,0.5,0.4,0.5c1.7,1,1.2,3.7,1.1,6.4
		c0,0-0.5,0.4-0.5,0.5l0,0.5c-0.1,1,0.6,1.1,0.6,2.8l-0.1,1.7c-0.1,0.1-0.6,1.1-0.6,1.1c-0.1,1,0.6,2.9,0.5,4.1
		c0.3,3.7,0.6,8.2,0.2,12.4l0.2,0.6c-1.4,9.1,1.4,26.1,2,35.3c1,1,1.5,10.5,1.5,11.9c-0.3,2.6-2.3,2.2-3.6,3.2
		c0.1-0.4-0.9-1.2-0.9-1.2c-0.2,0.7-1.5,0.5-1.6,0.5c-0.3,0-1.2-0.1-1.3,0c-0.4-2.8-1-3.5-0.6-7.3l-0.6,0c-0.2-0.6-0.3-4.1-0.5-5
		c0-0.3-0.2-0.6-0.2-1.3c-0.7-5.1-2.5-19.3-3.4-20.1c-1,2.4-1,0.5-2.5,1.3c-0.1,0.1-1.3,1.2-1.6,1.7c-2.1,3-6.5,4.7-9.8,6.2
		c-0.3,0-1.6,0.4-1.9,0.5c-4.1,1.6-6.8,17.6-8.4,23c-1.2,2.9-1.7,5.7-5.5,5.9c-1.9,0.1-5.2-2.9-5-5.5
		C83.5,129.8,83.8,128.5,84.5,128.1z M107.6,85.8c-1.4,2.7-1,2.9-1.9,5.8c-0.7,2.2-1.6,3.7-2.4,5.8l-0.1,0.5
		c1.3-0.3,7.2-2.7,8.5-3.2c0.1,0,0.9-0.6,1-0.6c0.4-0.3,2.1-1,2.4-1.1c0.3,0.5,2.9,2.5,3.1,2.5c0.1,0,0.6-0.4,0.6-0.9
		c0.2-3.1,0.1-35.9-1.2-37.9c-1.2,1.5-0.8,3.4-2.1,5l0.2-2.1l-0.6,0c-0.2,1.6-0.8,2.8-0.8,4.6c0.1,0,0.3,0.4,0.3,0.4l0,0.6l-1.8,2.4
		c0.1,0.1,0.3,0.9,0.3,1.3l-0.1,0.4l-1.6,3.2c0,0.3-0.5,0.7-0.5,0.7c0,0.1-0.1,0.5-0.1,0.5l0.4,0c-0.8,3.7-2.2,7.2-4.1,10.3
		c0.5,0.3,0.4,0.7,0.5,1.3L107.6,85.8z M107.5,74.1c0.5,0,0.7-1.2,0-1.2C107.2,72.9,107,74,107.5,74.1z M108.7,72.8
		c0.5,0,0.6-1.1,0.1-1C108.3,71.8,108.2,72.9,108.7,72.8z M111.5,72.1c0.4,0,0.5-0.9-0.1-1C111.1,71.1,111.4,72.1,111.5,72.1z
		 M124.5,125.9c0.5,0,0.6-1.2,0-1.2S123.9,125.9,124.5,125.9z M128,130.4c0.4,0,0.4-1.3,0-1.3C127.5,129.1,127.5,130.4,128,130.4z"
		/>
</g>
<g class="st0">
	<path class="st1" d="M141.1,126.3c0.4-2,1.8-11.6,1.9-13.5c0-0.4-0.2-0.9-0.2-1.3c-0.3-4,1.9-8.6,2.2-12.5
		c0.3-3.5,1.6-8.7,0.8-12.3l4.3-30.2l0-0.5c-0.1-1.2-1.4-2.1-2.4-1.6l-0.4-0.4c-1.5-1.2-4.1-3.1-5.1-5.2l0-0.5l0.6-0.7
		c7.4-6.9,16.2-9.5,26.2-10.2c0.8-0.1,3.5-0.1,3.7-0.1l0.5,0.5c0.5-0.2,1-0.2,1.7-0.2c7.6-0.5,23.2,3.3,23.7,11.8
		c0.6,9.4-4.8,14.5-10,21.5c-0.8,1.1-1.4,3.6-3.1,3.7c-0.1,0-1.1-0.6-1.2-0.6c-0.6,0-0.7,1.6-0.6,1.8c-1.7,0.1-0.9,3.2-2.5,3.3
		c-0.1,0-0.3,0-0.5-0.1c-0.8,1.1-2.7,3.2-2.7,3.2c-0.5,0.5-1.8,1.4-2.2,1.4l-1.4,0.1c0,0.3,0.6,1.9,0.5,2.2
		c-1.1,2.8-8.8,4.7-8.4,10.5c0,0.3,0.2,1,0.2,1.1c0.7,1.1,5,4.8,6.1,5.6c0.4,0.2,3.6,1.2,4,1.4c0.1,0.1,1.1,0.8,1.2,1.1
		c2,2.3,11.1,4.4,16,5.5l1,0.2c0.1,0,0.3,0.1,0.4,0.1c1.4,0.3,2.2,2.4,3.6,2.3l0.1,1.5l-0.5,0l-0.6,0.7c-0.5,0.4-2,1.3-2.2,1.3
		c-0.1,0-2-0.4-2.1-0.5c-2.1,0-4.4,0.3-6.3-0.1c-1.7-0.3-3.1-2.1-4.8-2.5c-1.8-0.5-3.9-0.1-5.7-0.8c-6.4-2.5-12.6-6-17.3-11.3
		c-0.4-0.4-3.4-4.5-3.8-5c0,0-0.4-0.5-0.5-0.5l0.1,0.8c0.3,4-0.8,13.3-2.3,15.7l0.5,0l0.3,4.7c-3.4,3.2,0,8.9-4.9,10.9
		c-1.5,0.6-0.4,1.7-2.9,2.5c-0.6,0-0.8-0.6-1.6-0.5c-0.6,0-0.9,0.2-1.5,0.6c-1.1-0.6-1.9-1.2-2.6-2
		C140.4,128.9,141,126.8,141.1,126.3z M142.6,131.4l0.6,0C143.1,131.4,143,131.3,142.6,131.4z M149.3,129.8c-0.5,0-0.6-1.1-0.1-1.2
		C149.9,128.6,150,129.8,149.3,129.8z M160,68.7c0,0.4-1.3,3.8-1.4,4.2c-0.7,3.4-1.6,10.5-1.4,13.5l0,0.6c3.2-1.6,4.2-5.7,7.5-7
		l0.6,0c6.2-7.2,23.2-19.9,22.5-30.8c0-0.3-0.2-1.7-0.3-1.9c-3.1-1.7-9.3-2.2-12.4-2c-1.5,0.1-14.4,2.7-14.2,4.6
		c0,0.4,0.5,1.9,0.7,2.3l-1,10.6l-0.6,1.3C160.2,64.9,160.1,68,160,68.7z M194.3,115c0.6,0,0.6-1.2-0.1-1.2
		C193.7,113.9,193.8,115.1,194.3,115z M200.1,114.7c-0.1,0-0.2-0.5,0-0.5C200.4,114.1,200.4,114.5,200.1,114.7z"/>
</g>
<g class="st0">
	<path class="st1" d="M253.8,94.4c-0.3,0-0.4-0.2-0.4-0.6c-0.3,1.4-0.4,3.4-1.1,3.9c-0.1,0.1-0.9-0.5-1.2-0.4c0,2.6-2.4,2.6-2.5,4.9
		c-4.2,4.5-4.3,4.5-4.3,4.5c-1.3,0.1-5.7,7.3-8.1,7.5c-0.1,0-0.3-0.1-0.4-0.1c-1.7,4.1-3.2,3.7-6.5,6.2c-4.8,3.8-8.2,6.6-14.6,7
		l-0.9,0.1c-5.5,0.2-11-3.9-12.7-8.9c0-0.6-0.1-3.7-0.2-4.5c0.1-1,0-4.1,0-4.4c0.2-2.2,1.9-12.4,2.4-14.3l0-0.6
		c-0.4-0.5-3.1-2.6-3.5-3.8c0,0,0.3-0.8,0.6-1.1l0.6-0.7c0.6-0.4,3.6-2,4.2-2.3c0.5-0.8,1.9-4.6,2.1-5.5c0.1-0.4,0.2-2.3,1.1-2.8
		l4.6-13.8c-0.3-1,0.3-2.7,0.3-3.9c-0.4,0-1.8,0.8-2,0.5c-2.4-0.9-5.3-2.3-5.6-5.3c0-0.1,0.3-0.9,0.4-1.2c7.4-2.3,12.2-3.8,14-11.5
		l0.9-6c0.1-0.5,0.8-2.9,1.1-3.4c0.3,0,1.7,0,1.9,0c2.4-0.2,6.6,0.7,7,3.8l1.1-0.7c-0.7,1-1,3.8-1.1,5.1l0.1,1
		c1.2-0.9,5.6-2.8,6.9-2.9c1-0.1,2.8,1.5,3.1,2.1c0,0.1-0.3,1.3-0.5,1.6c-0.5,0.5-0.5,0.7-0.5,0.7c0.1,0.8,0.9,1.6,1.6,1.1l-2.6,2.8
		c-1.8-0.4-2.1,0.9-3.9,1.3c-0.1,0-1.6-0.2-1.5,0c-0.2,0.1-0.4,1.6-0.5,1.7c-1.6,2.4-4.6,4.1-6.4,6.2l-0.5-0.5
		c-1.5,1.9-1.5,6.4-2.1,8.8c-0.7,3-1.9,5.7-2.9,8.4c-0.1,0.1,0.1,0.9,0.1,1l-0.7,1.7l0.6,0l12.3-8.6c0.6-0.7,1.8-1.4,2.2-1.7l0,1.9
		c1.2-0.1,0.7-0.9,1.7-1c0.9-0.1,2.9,4.1,2.9,5c-3.1,3.7-7.7,8.1-11.2,10.8c-4.5,3.7-12.5,6.1-14.5,12.1l-0.5-0.5
		c-0.1,0-0.5,0.4-0.6,0.6l0,0.5c0,0.1,0.5,0.5,0.5,0.5c0,0.3-0.4,1.6-0.5,1.7c-0.8,3.5-1.9,11.7-1.8,15.4c0.1,1.3-0.2,6.2,1.7,6.1
		c1.2,0,1.8-0.4,2.9-1.2c13.5-8.6,24.7-20,34.4-32.5l0.1,1.2c1.3-0.1,2.5,0.3,3.3,1.6c-1,0.1-1.1,0.3-1.1,1c0.1,0.9,0.3,2.4,1.2,2.9
		l-0.3,0.7c0.1,0,0.2-0.1,0.4-0.2C254.4,93.2,254.3,94.3,253.8,94.4z M211.7,70.8c0.2-0.1,0.2-0.5,0-0.6
		C211.3,70.2,211.3,70.7,211.7,70.8z M225.8,60.3c-0.6,0-0.7-1-0.1-1C226.3,59.3,226.4,60.3,225.8,60.3z M232.4,116.4l0,0.6
		c0.6-0.3,1.2-0.7,1.3-1.2C233.2,115.9,232.5,116.3,232.4,116.4z M237.1,72.2c0.6,0,0.7-1.2,0-1.2C236.6,71.1,236.6,72.2,237.1,72.2
		z M237.7,72.2c0,0.3,0.4,0.2,0.5,0C238.2,72,237.7,72,237.7,72.2z M239.1,44l-0.1-1.7l-0.8,0.1C238.3,42.9,238.5,43.8,239.1,44z
		 M246.7,95.6c0.5,0,0.4-1.1-0.1-1C246.1,94.6,246.1,95.5,246.7,95.6z M248.3,95.5c0.2-0.3,0.3-1.8,0-2.2
		C247.7,93.4,248.2,95.5,248.3,95.5z M250.5,92.8c0.4-0.2,0.4-0.5,0-0.5C250,92.3,250.1,92.8,250.5,92.8z"/>
</g>
<g class="st0">
	<path class="st1" d="M302.4,143.7c0-0.3,0.2-1.6,0.1-1.8c3.3-11.4,8-24.2,11.3-36.7c-0.1-1-2.8-2.8-3-3c-2.1-3.1-3.6-8.1-4.7-11.8
		c-0.2-1.3-0.1-3.5-1.1-4.6c-0.2-1.7-2.2-10-2.5-12.1c-0.2-0.8-0.5-3.8-0.6-4.5l0.4-30.3c-0.1-1.3,0.2-4.3,1.2-5.7l2.2-0.1
		c2.3-0.2,5.8,0.8,7.2,3.2l0.1,3.5c0.1,2.7-1.3,5.2-1.3,7.7l0,0.3c0.1,0.8,0.6,0.9,0.5,2.2c0,0.4,0,1.2,0,1.3c0,0.1-0.5,0.9-0.6,1.1
		c0,0.1,0.3,0.6,0.4,0.6c-0.2,12.4,0.5,30.5,5.1,42.2c1.6-1,2-4,2.6-5.7c3.1-8.8,5.9-17.7,9.3-26.3c1.2-3,1.8-5.9,3.2-8.6l6-19.9
		l2.1-3.1l0.8-0.1c2.8-0.1,6.2,0.7,7.7,3.9l0.1,0.9c-0.1,0.3-0.2,0.9-0.2,0.9l-1.5,2.3c-0.9,2.1-0.8,3.5-1.1,6.3
		c-0.2,1.2-1.3,2.3-1.5,3.7c0.1-0.1,0.2-0.3,0.4-0.3c0.5,0,0.5,1.3,0,1.3c-0.3,0-0.4-0.1-0.4-0.4c-0.1,0.3-0.1,0.7-0.1,0.9l0,0.6
		c-0.1,4.4-3.9,9.2-5.4,13.4l1.1-0.7l-1,1.7c-1.4,1.9-0.6,2.6-1.7,4.8c-2,4.6-3.5,8.7-4.9,13.3c-0.5,2.1-2.9,5.1-3,7
		c-0.9,4.4-2.8,8.3-3.9,12.8c0,0.1-0.5,0.4-0.5,0.4c-1.9,3.7-1.6,8.1-3.2,11.6c-3,7.2-5.5,14-8.2,21.3c0,0-0.5,0.3-0.5,0.4
		c0,0,0.5,1.1,0.5,1.3c0,0.1-0.4,1.2-0.5,1.6c0,0.1-0.5,0.5-0.6,0.6l-1.5,4.9l-0.5,0c0-0.3-0.6-0.7-0.9-0.7
		c-1.2,0.1-2.1,1.8-3.6,1.9c-1.3,0.1-2.5-0.7-3.1-1.9c0.1,0,0.1,0.1,0.3,0.1c0.5,0,0.4-1.1-0.1-1c-0.3,0-0.4,0.3-0.3,0.5
		c0,0.1,0.1,0.2,0.2,0.4c-0.1,0-0.1-0.1-0.2-0.4C302.5,144.5,302.5,144.1,302.4,143.7z M309.5,139c0.3-0.5,0.4-2,0-2.3
		C309.1,136.3,309.2,139.3,309.5,139z M319.7,110.5c0.5,0,0.4-1.1-0.1-1C319.2,109.5,319.2,110.5,319.7,110.5z M341.6,56.8
		c-0.4,0-0.3,1.1,0.2,1.1c0.5,0,0.4-1.2-0.1-1.2L341.6,56.8z M349.2,38.1c-0.5,0-0.6-1-0.1-1C349.6,37.1,349.7,38.1,349.2,38.1z"/>
</g>
<g class="st0">
	<path class="st1" d="M352.5,56.3c1.8-4.4,2.5-8.5,3.9-13c2.2-7.1,6.2-13.7,10.9-19.3c1.8-1.3,2.6-1.5,4.5-1.6
		c2.6-0.2,5.8-0.1,8.2,1.4c2.8,1.7,6.5,2.4,9.8,3.6c1.7,0.5,4.6,11.4,4.8,13.3c0.2,2.7-0.8,5.2-0.6,8l0,0.5c0,0,0.6,1,0.6,1.1
		c0,0.3-0.9,1.7-1,2.1c0.1,0.9,0.7,0.9,0.8,1.9l0.1,0.8l-1,2.6c0,0,0.7,0.9,0.7,1c0.1,1-3.1,13.1-3.8,14.7l-1.2-0.9l0.2,2.3l0.7,0.5
		c0.2,2.8-2,2.6-2.4,4.4c-0.1,0.4,0.3,3.2,0.2,3.6c0,0.1-0.9,1.2-0.9,1.2c-0.8,1.3-5.6,13.7-6.2,13.7c-0.4,0-1.3-0.4-1.4-0.4
		l0.1,1.2c0.5,0,0.5-0.5,1.1,0.4c-0.2,0.8-1,0.8-1.5,0.7c-2.9,4.8-7.2,7.8-12.5,8.2c-10,0.7-16.5-7.8-17.3-18.8
		C348.5,78.3,350.4,67.4,352.5,56.3z M359.9,97.3c0,0.1,0.4,0.9,0.7,1c0.6,0.7,2.2,2.3,2.2,2.3c0.1,0.1,0.4,0.1,0.7,0.1
		c3.1-0.2,8.3-8.3,9.3-10.3c0.8-1.5,4.4-8.8,5.2-10.5c2.5-5.6,3.9-12.6,5.1-18.5c0.3-1.3,0.1-2.8,0.7-4.2c0.7-6.2,1.6-11.2,1.2-16.7
		l-0.1-0.8c-0.3-3.8-0.6-9-5-8.7l-0.5,0.5c-0.4,0.3-1.7,1.3-2.3,1.4c-0.6,0-1.2-0.7-2-0.6c-0.1,0-0.4,0.2-0.4,0.2
		c-1,1.1-8.4,11-8.3,11.8c0.2,2.3-1.2,9.5-3,9.6c0.2,3.3-1.7,5.9-1.5,8.9l-1.4,0.1c0,0,0.2,0.5,0.2,0.6c0.1,0.1,0.6,1,0.6,1.2
		c0.2,3.6-1.7,6.9-2.4,10.3c-0.7,3.3-0.7,7.4-0.4,11c0.1,0.8,0,1.5,0.7,2.1L359.9,97.3z M359.7,76.9c-0.5,0-0.6-1.2-0.1-1.3
		C360.1,75.5,360.2,76.8,359.7,76.9z M385.9,32.9c0.5,0,0.4-1.2-0.1-1.2C385.3,31.8,385.4,33,385.9,32.9z"/>
</g>
<g class="st0">
	<path class="st1" d="M435.6,108.8l0-0.6c-1.9-0.1-3.4-1.1-3.6-3.5c-0.6,0-1.2,1.2-1.3-0.8l-0.6-15.9l-0.5,0c0,0.4-0.6,2-0.9,2.2
		c-0.1,0.1-0.9-0.5-1.2-0.4l0.1,0.8c0.1,2.7,0.1,2.7-1.3,4c-0.2,0.3-0.7,0.6-1.1,1c-0.6,0.6-3.5,3.8-3.9,4.6c-0.3-0.2-3.2,2.5-4.2,3
		c-0.1,0-0.9,0.4-1,0.6c-0.4,0-2.4,0-2.8,0.1c-10.2,0.3-13.4-9.6-14-18.8l-0.1-1.4c-0.3-10,2.1-20.5,3.2-30.4
		c0.1-0.3,0.6-0.8,0.6-0.9c0.1-0.8,0.8-5.7,1-6.5c0.1-1.7,1.7-9.6,2.1-11.3c2-3.1,0.2-7.9,3.3-10.4c0.3,0,1.5-0.2,1.8-0.3
		c3.2-0.1,7,0.6,7.3,4.5c0.3,3.7-1.9,5.8-2.2,8.7c-0.4,2.3-1.5,17.2-3.7,17.3l0.1,0.8c0.2,2.9-0.9,5.5-1.2,8.3
		c-0.8,6.9-2.1,14.7-1.9,21.9c0.1,3.3,0.6,7,2,10l2.9-2.4l18.1-20.4c2.2-15.3,5.8-30.4,10-45.4c0-0.3,0.1-0.4,0.1-1
		c0.1-2.2,0.2-4.1,2.4-4.3c2.3-0.2,4.4,1.9,6.7,1.7c0.2,0.6,0.6,3.8,0.7,4.5c0,0-0.1,0.8-0.1,0.9c0.2,5.1-3.5,9.5-3.1,14.5l0,0.6
		l-2.2,9.3l-1,2.3c-0.9,1.6-0.3,3.4-0.8,5.6c-0.6,3.1-2,6.3-2.3,9.3c-0.1,0.3,0,2.2,0,2.3c-0.2,2.5-1.9,4.8-1.8,7.1
		c0.1,0.9,0.6,0.9,0.6,1.6c0.2,4.6-1.8,9.3-1.6,13.6c0.1,1.2,0.7,2.5,0.7,3.9c0.1,1.4-0.5,2.5-0.5,3.9c0.1,0.9,0.6,1.8,0.7,3
		c0.1,1.3-1.1,3.3-2.3,3.4c-0.1,0-0.9-0.5-1.2-0.6c0,0-0.4-0.6-0.6-0.6S435.7,108.6,435.6,108.8z M408.3,53.2c0.5,0,0.4-1.2-0.1-1.2
		C407.7,52.1,407.8,53.2,408.3,53.2z M441.2,58.4l-0.1-1.2l-0.6,0C440.5,57.8,440.7,58.2,441.2,58.4z"/>
</g>
<g class="st0">
	<path class="st1" d="M144.3,278.2c0,0.6,0.2,0.9,0.6,0.9c0.6,0,0.7-1.5,0.1-1.7c2.4-2.5,4.6-4.3,6.7-4.4c5.3,0,10.6,1.9,10.9,9.1
		c0.4,10.7-2.5,27.1-4.2,36.9c-3.8,22.4-11,43.8-15.8,65.5c-0.9,2.3-2.2,19.7-4.8,19.8c-4.7,0-9-5.2-9.2-10.6
		c-0.4-13,3.3-25.4,6.9-37.2c1.2-4.6,1.6-9.9,2.7-14.4c3-12.4,6.9-24.4,7.1-37.4c0-0.4-0.3-2.3-0.3-2.4c-0.4,0-1.7,1-2,1.6
		c0,0.2,0.8,1.5,0.8,1.7l-0.2,0.9c-0.2-0.2-1.5-0.9-1.9-0.9c-0.6,0-1.4,2.3-1.4,2.3c0.8,0,1.9-0.1,2.1,1.1c-1.3,1-2.5,3.3-3,5
		c0-0.2-0.4-0.2-0.6,0c-0.2,0.2-0.5,2.3-0.7,2.7c-0.5,0.8-3.4,4.3-4.2,4.9c0.8,2.8-1.3,6.1-2.8,7.6c-0.7,1-4.1,5.8-4.9,7.1
		c0,1.3-4.6,4.1-4.9,7.3c-0.2-0.6-1.2-0.9-1.4-0.9c-0.2,0-0.7,0.4-0.7,1c-0.2,0.4-0.6,4-0.6,4.4c-2.5,4.4-7.9,6.3-12.2,6.4l-0.8,0
		c-0.6,0-3-0.1-3.2-0.1c-1.1-0.2-4-2.1-4.1-2.7l0-0.9c-5.7,0-11.5-17.9-13.1-17.9c-2.6-0.1-4.4,56.4-8.3,58c-0.6,0.2-1.5,1-1.5,1
		c0.2,0.4,0.4,1.1,0.5,2.4c0.8,0.2,1.5-0.4,1.6,1.6c-2.1,4-2.7,10.7-8.3,10.8c-1.5,0-8.3-0.9-8.4-3.9c5.2-13.6,5.3-29.1,6.9-42.9
		c0.3-1.7,0.8-3.6,0.7-6.1l6.1-44.4c-0.2-0.4-0.3-2.1-0.1-2.5c0.3-1.5,1.2-10,1.5-11.8c0-0.6,1.1-2.3,1.4-2.5
		c0.2-0.2,1.3,0.5,1.7,0.5l-0.1-7.5c0-0.4,1.1-1.2,1.7-1.4l1.3,0c0.9,0,4.9,0.6,5.7,0.8c1.6,3.3,5,2.9,5.2,8.1c-0.1,1.7-1,2.9-1,4.2
		c0,1.1,1.3,4.5,1.5,5.6c0.4,2.1,1.1,11.1,1.4,13l0.8,0.7c-0.1,1.3,0.6,6.4,0.6,7.7l2.7,8.4c1.2,2.8,1.9,7.1,4.8,8
		c0.6-0.2,1.7-0.8,1.7-0.8c1.6-1.8,6-6.6,6.4-7.2l17.4-28.5l2.6-5.8c1.6,1.6,4.2-4.9,4.1-6.7C137.3,288.6,140.7,282.7,144.3,278.2
		c-0.2-0.4,0-0.9,0.5-1L144.3,278.2z M65.7,394.1c0.8,0,0.9-1.7,0.1-1.7C65.1,392.4,64.9,394.1,65.7,394.1z M131.8,305.4
		c0.4-0.2,0.4-0.8,0-0.8C131.4,304.3,131.4,305.4,131.8,305.4z M136.8,317.3c0.6,0,0.5-1.7-0.1-1.7
		C135.9,315.7,136,317.2,136.8,317.3z M136.6,319.8c-0.4-0.2,0.5-1.2,0.7-0.8C137.4,319.6,137.2,320,136.6,319.8z M137.2,296
		l0.7-0.8l-0.8,0L137.2,296z M141.6,286.8c0.6,0,0.5-1.7-0.1-1.7C140.8,285.1,140.8,286.8,141.6,286.8z"/>
</g>
<g class="st0">
	<path class="st1" d="M171.6,319.2c2.8-6.3,4.1-12.4,6.4-18.9c3.6-10.3,9.7-19.8,17-27.7c2.8-1.8,3.9-2,6.7-2.1
		c3.8-0.1,8.5,0.1,12,2.4c4.1,2.7,9.4,3.8,14.2,5.8c2.5,0.9,6.2,17,6.3,19.8c0.1,4-1.4,7.6-1.3,11.7l0,0.8c0,0,0.8,1.5,0.8,1.7
		c0,0.4-1.4,2.5-1.6,3.1c0,1.3,1,1.3,1,2.8l0,1.1l-1.6,3.8c0,0,1,1.3,1,1.5c0,1.5-5.2,19.1-6.3,21.3l-1.7-1.5l0.1,3.4l1,0.7
		c0.1,4.1-3.1,3.7-3.8,6.4c-0.2,0.6,0.3,4.7,0.2,5.3c0,0.2-1.5,1.7-1.5,1.7c-1.3,1.9-9,19.7-9.7,19.8c-0.6,0-1.9-0.7-2.1-0.7
		l0.1,1.7c0.8,0,0.7-0.8,1.5,0.7c-0.3,1.1-1.5,1.2-2.2,1c-4.5,6.9-11,11.1-18.7,11.4c-14.7,0.5-23.8-12.2-24.4-28.5
		C164.5,351.1,168,335.4,171.6,319.2z M180.4,379.7c0,0.2,0.6,1.3,1,1.5c0.8,1.1,3.1,3.5,3.1,3.5c0.2,0.2,0.6,0.2,0.9,0.2
		c4.5-0.2,12.6-11.7,14.2-14.6c1.3-2.1,6.9-12.7,8.2-15.2c3.9-8.1,6.4-18.3,8.4-26.9c0.5-1.9,0.2-4.2,1.3-6.1
		c1.4-9.1,2.9-16.3,2.6-24.4l0-1.1c-0.2-5.7-0.4-13.2-6.8-13l-0.7,0.8c-0.6,0.4-2.6,1.8-3.5,2c-0.9,0-1.7-1.1-2.9-1
		c-0.2,0-0.6,0.2-0.6,0.2c-1.5,1.6-12.9,15.7-12.8,16.8c0.1,3.4-2.2,13.9-4.8,13.9c0.2,4.9-2.7,8.6-2.6,12.9l-2.1,0.1
		c0,0,0.2,0.7,0.2,0.9c0.2,0.2,0.8,1.5,0.8,1.9c0.2,5.3-2.9,10.1-4,15c-1.2,4.8-1.3,10.8-1.2,16.1c0,1.1-0.1,2.3,0.9,3.2
		L180.4,379.7z M181.1,349.7c-0.8,0-0.8-1.9-0.1-1.9C181.8,347.7,181.8,349.6,181.1,349.7z M221.8,286.6c0.8,0,0.7-1.7-0.1-1.7
		C221,284.9,221.1,286.6,221.8,286.6z"/>
</g>
<g class="st0">
	<path class="st1" d="M240.2,398.3c0.7-2.9,3.2-16.9,3.5-19.7c0-0.6-0.2-1.3-0.3-1.9c-0.2-5.8,3.2-12.6,3.9-18.3
		c0.6-5.1,2.8-12.7,1.9-18l7.8-44.1l0-0.8c-0.1-1.7-2-3.1-3.5-2.5l-0.6-0.5c-2.1-1.8-5.8-4.7-7.2-7.9l0-0.8l0.9-1
		c11.2-9.8,24.3-13.1,39-13.6c1.1,0,5.1,0,5.5,0l0.8,0.7c0.7-0.2,1.5-0.2,2.4-0.3c11.1-0.4,33.8,6.1,34.2,18.5
		c0.5,13.8-7.8,21-15.8,31.1c-1.3,1.6-2.3,5.2-4.7,5.3c-0.2,0-1.5-0.9-1.7-0.9c-0.9,0-1.1,2.3-1,2.7c-2.5,0.1-1.5,4.6-3.8,4.7
		c-0.2,0-0.4,0-0.8-0.2c-1.3,1.6-4.2,4.5-4.2,4.5c-0.7,0.8-2.8,2-3.3,2l-2.1,0.1c0,0.4,0.8,2.8,0.7,3.2c-1.8,4-13.2,6.5-12.9,15
		c0,0.4,0.2,1.5,0.2,1.7c1,1.7,7,7.3,8.6,8.6c0.6,0.4,5.2,1.9,5.7,2.3c0.2,0.2,1.6,1.3,1.8,1.6c2.8,3.5,16.1,7,23.1,8.9l1.5,0.3
		c0.2,0,0.4,0.2,0.6,0.2c2.1,0.5,3.1,3.7,5.2,3.6l0.1,2.3l-0.8,0l-0.9,1c-0.7,0.6-3,1.8-3.3,1.8c-0.2,0-2.9-0.7-3-0.8
		c-3-0.1-6.4,0.2-9.3-0.4c-2.5-0.5-4.4-3.2-6.9-3.9c-2.7-0.9-5.7-0.4-8.4-1.4c-9.2-4-18.2-9.4-24.7-17.5c-0.6-0.5-4.8-6.8-5.3-7.6
		c0,0-0.6-0.7-0.8-0.7l0,1.1c0.2,5.8-1.8,19.5-4.1,23l0.8,0l0.2,7c-5.1,4.5-0.5,13-7.8,15.7c-2.2,0.8-0.7,2.5-4.4,3.5
		c-0.9,0-1.2-0.9-2.3-0.9c-0.9,0-1.3,0.2-2.2,0.8c-1.5-0.9-2.7-1.8-3.7-3.1C239,402.1,240.1,399,240.2,398.3z M242.2,406l0.9,0
		C242.9,405.9,242.7,405.8,242.2,406z M252.1,403.9c-0.8,0-0.8-1.7-0.1-1.7C253,402.2,253.1,403.9,252.1,403.9z M270.9,314.8
		c0,0.6-2.1,5.5-2.3,6.1c-1.2,4.9-2.9,15.4-2.7,19.7l0,0.9c4.8-2.2,6.5-8.1,11.4-9.8l0.9,0c9.5-10.3,35.1-28,34.6-44
		c0-0.4-0.3-2.4-0.3-2.8c-4.4-2.7-13.5-3.7-18.1-3.6c-2.3,0.1-21.2,3.2-21.1,6c0,0.6,0.7,2.8,0.9,3.4l-1.9,15.5l-0.9,1.9
		C271.4,309.3,271,313.8,270.9,314.8z M318.9,384.5c0.9,0,0.9-1.7-0.1-1.7C318,382.9,318.1,384.6,318.9,384.5z M327.3,384.3
		c-0.2,0-0.2-0.7,0-0.8C327.9,383.5,327.9,384,327.3,384.3z"/>
</g>
<g class="st0">
	<path class="st1" d="M407.3,357.3c-0.4,0-0.6-0.4-0.6-0.9c-0.5,2.1-0.8,4.9-1.9,5.7c-0.2,0.2-1.3-0.7-1.7-0.7
		c-0.1,3.8-3.7,3.7-3.9,7.1c-6.4,6.4-6.6,6.4-6.6,6.4c-1.9,0.1-8.7,10.5-12.3,10.6c-0.2,0-0.4-0.2-0.6-0.2c-2.6,5.9-4.9,5.3-9.9,8.8
		c-7.2,5.3-12.3,9.3-21.8,9.6l-1.3,0c-8.1,0.1-15.9-6.3-18.2-13.7c0-0.9,0-5.5,0-6.6c0.1-1.5,0.2-6,0.2-6.4c0.5-3.2,3.4-18,4.2-20.9
		l0-0.9c-0.6-0.7-4.5-4-4.9-5.7c0,0,0.5-1.2,0.9-1.5l0.9-1c0.9-0.6,5.4-2.8,6.3-3.2c0.7-1.2,3-6.7,3.3-8c0.2-0.6,0.5-3.4,1.8-4
		l7.5-20.1c-0.4-1.5,0.6-4,0.6-5.7c-0.6,0-2.6,1-3,0.7c-3.4-1.4-7.7-3.7-8-8c0-0.2,0.5-1.3,0.7-1.7c11-3,18.1-4.9,21.2-16.2l1.6-8.7
		c0.2-0.8,1.4-4.2,1.7-5c0.4,0,2.5,0.1,2.8,0.1c3.6-0.1,9.7,1.4,10,5.9l1.7-1c-1.1,1.4-1.7,5.5-1.8,7.4l0,1.5
		c1.8-1.2,8.4-3.9,10.3-3.9c1.5,0,4,2.3,4.4,3.3c0,0.2-0.5,1.9-0.9,2.3c-0.7,0.8-0.7,1-0.7,1c0,1.1,1.2,2.4,2.3,1.6l-4,3.9
		c-2.7-0.7-3.2,1.2-5.8,1.7c-0.2,0-2.3-0.3-2.3-0.1c-0.4,0.2-0.7,2.3-0.9,2.5c-2.5,3.5-7,5.7-9.7,8.8l-0.8-0.7
		c-2.4,2.7-2.5,9.3-3.5,12.8c-1.2,4.4-3.1,8.2-4.7,12.2c-0.2,0.2,0,1.3,0,1.5l-1.1,2.5l0.9,0l18.5-11.9c0.9-1,2.8-2,3.3-2.4
		l-0.1,2.8c1.7-0.1,1.1-1.4,2.6-1.4c1.3,0,4,6.1,4,7.4c-4.7,5.3-11.7,11.5-17,15.3c-6.8,5.1-18.6,8.4-21.9,17l-0.8-0.7
		c-0.2,0-0.7,0.6-0.9,0.8l0,0.8c0,0.2,0.8,0.7,0.8,0.7c0,0.4-0.7,2.3-0.9,2.5c-1.3,5.1-3.4,17.1-3.4,22.6c0.1,1.9-0.6,9.1,2.2,9
		c1.7,0.1,2.6-0.5,4.3-1.7c20.2-12,37.2-28,52.1-45.9l0.1,1.7c1.9-0.1,3.6,0.6,4.8,2.5c-1.5,0-1.7,0.4-1.7,1.4
		c0,1.3,0.3,3.6,1.7,4.3l-0.5,1c0.2,0,0.4-0.2,0.6-0.2C408.1,355.5,408,357.2,407.3,357.3z M346.8,320.6c0.4-0.2,0.4-0.8,0-0.9
		C346.2,319.6,346.2,320.4,346.8,320.6z M368,305.9c-0.9,0-1-1.5,0-1.5C368.7,304.4,368.7,305.9,368,305.9z M374.7,388.5l0,0.9
		c0.9-0.4,1.9-1,2-1.8C376,387.7,374.9,388.3,374.7,388.5z M383.9,323.9c0.9,0,1.1-1.7,0.1-1.7C383.3,322.2,383.1,323.9,383.9,323.9
		z M384.8,323.8c0,0.4,0.6,0.4,0.8,0C385.6,323.6,384.8,323.6,384.8,323.8z M388.4,282.6l-0.1-2.5l-1.1,0
		C387.2,280.9,387.4,282.2,388.4,282.6z M396.7,358.7c0.8,0,0.7-1.5,0-1.5C395.9,357.3,396,358.6,396.7,358.7z M399.2,358.7
		c0.4-0.4,0.5-2.7,0.1-3.2C398.3,355.5,399,358.7,399.2,358.7z M402.5,354.8c0.6-0.2,0.5-0.8,0-0.8S401.9,354.8,402.5,354.8z"/>
</g>
<g class="st0">
	<path class="st1" d="M434.9,310.5c0.2-0.2,0.5-1.7,0.7-2.3c5.3-15.5,13.9-30.5,15.1-46.6c-10,0.3-20,10.5-27.6,16.8
		c-0.2,0.4-1.8,1.4-2.2,1.6c-5.6,2.8-6.8,16.5-14,16.7c-2.6,0.1-7.3-4.5-7.4-6.5c0.6-10.2,23.7-35.9,36-36.3c0.9,0,4.3-2,5-2.4
		c3.6-1.1,3-0.9,7-1c7.9-0.3,16.7,4.2,17,12.6l0,1.1c-0.4,3.8-0.7,8.3-1.5,12.3c-0.8,2.9-4,6-5.4,8.9c-1.6,3.6-2.6,12.5-4.6,15.6
		c-0.2,0.4-2.9,2.7-3.1,3.1c-0.2,0.4-0.4,4.5-0.6,5.1c0.2,0.4-2.3,4-2.5,4.4c-1.5,4.6-3.1,10.3-5.4,14.9c0,0.2-1.5,1.4-1.6,1.6
		c-2.2,3.1-2,13.7-6.3,13.8c0,0.4-0.2,0.6-0.2,0.9l0,0.6c-0.3,3.2-0.5,6.6-3.9,8.4l-0.8,10.4c-0.3,1.1-4.5,6.9-5.8,7l0.3-2.5
		c-0.4,0.8-1.6,1.6-2.6,1.6c-4.3,0.1-4.6-3.4-4.4-7.2C417.5,347.9,427.3,324.1,434.9,310.5z M409.1,403.2c0.1-1.5,0.6-5.3,3-5.4
		c3.6-0.1,12.3-0.4,12.4,5.1c-0.4,3.8-2.8,7.1-6.6,7.2c-4,0.1-8.7-1.6-8.9-6.7L409.1,403.2z M427.6,369.4c-0.6,0-0.2-1.7,0.3-1.5
		C428.3,368.1,427.8,369.4,427.6,369.4z"/>
</g>
<g class="st0">
	<path class="st1" d="M34.3,243.1c-0.5,1.7-0.3,3.3-0.5,5.3c0,0.1-0.3,1.2-0.4,1.5c0,0.1-0.3,0.5-0.3,0.7c0,0.1,0.4,1,0.4,1.3
		c0.4,4.1-1.3,7.6-1.9,11.5c0,0.1,0,1.4,0,1.7c0,0.5-0.2,3.6-0.3,4.2c-2.1,1.5,0.1,0.8-1.4,2.8c-0.9,1.2-4.8,2.3-6.7,2.4l-0.5,0
		c-1.2,0.1-1-0.9-1.1-1.8c-0.2-3,1.2-6.3,1.7-9.5c0.8-6.5,0.2-13.2,0.8-19.7c0.1-0.4,0.8-4.2,1-4.7l-0.1-1.2l3.5-38.4
		c-0.5-3.7,0.2-7.8-0.2-11.6l0-0.5c0.8-2.7,1.6-1.1,4.1-1.8c5.8-1.8,6.5-3.5,12.7-4l1.9-0.2c8-0.4,22,1,23.4,11.6l0,0.5
		c0.5,5.4-3,9.4-3.9,14.6l-5.4,6.2c-0.1,0.8-1.5,2.3-2,3.3l-0.7,2.1l-1.3-1c0.1,2.4-2.5,2-2.4,4.2c0,0.4,0,1,0.6,1.4
		c-1.7,2.4-4.5,4-6.3,6.7c-0.8-0.6-1.1,1.7-2.1,1.1c-0.3,1.8-2.9,3.9-2.7,5.9c0.6,6,33,3.7,35.5,9.8c-1.2,0.9-3.1,2.2-4.6,2.4
		l-1,0.1c-0.1,0-0.6-0.6-0.7-0.6c0,0-0.8,0.7-1,0.7c-0.1-0.1-0.7-0.1-0.9,0c-3.5,0.2-6.4-0.7-9.6-1c-11.1-1.8-17.5-0.4-26.5-8.1
		c-0.6,0.7-0.8,1.2-1,1.6c0-0.1-0.2-0.5-0.4-0.5C33.4,242.2,33.5,243.1,34.3,243.1z M23.5,273.8c0.4,0,0.3-0.9-0.2-1
		C22.9,272.8,23.4,273.8,23.5,273.8z M32.6,264.4l0,0.5c-0.2-0.4-0.4-1-0.4-1.1l0-0.5C32.6,263.5,32.7,264,32.6,264.4z M33.9,256.8
		c-0.5,0-0.6-1-0.1-1C34.2,255.8,34.3,256.8,33.9,256.8z M34.3,243.1c0.1-0.1,0.2-0.3,0.2-0.5L34.3,243.1z M36.8,225.7
		c0.1-0.8-0.1-1.3-0.7-1.9c-0.1,0-0.5,0.3-0.5,0.4C35.7,225,36.1,225.8,36.8,225.7z M36,231.2c1.6-1.7,8.7-9.9,10.3-11.7
		c5.1-5.9,14.7-17.7,14.3-26.3c-0.2-1.7-0.1-3.7-1.9-4.1c-2.1-0.4-6.8-1.3-9-1.1c-2.6,0.2-11.7,4.8-11.5,8.3c0.1,0.8,0.7,1.6,0.8,3
		c0,0.3,0.3,1.8-0.5,2c0.6,3.7-0.1,7-0.4,10.8c-0.2,1-0.7,11.8-0.8,13.2c-0.2,0.8-0.1,3.4-1.5,3.5L36,231.2z M36.7,221.7
		c0.5,0,0.4-1.2-0.1-1.2C35.9,220.6,36,221.8,36.7,221.7z M51.3,215c0.5,0,0.4-1.1,0-1C50.8,214.1,50.7,215,51.3,215z M58.4,214.6
		c0.5,0,0.5-1.1,0-1C58.1,213.6,58.1,214.7,58.4,214.6z"/>
</g>
<g class="st0">
	<path class="st1" d="M127.8,234.3c-0.3,0-0.4-0.2-0.4-0.6c-0.3,1.4-0.3,3.4-1,4c-0.1,0.1-0.9-0.4-1.2-0.4c0.1,2.6-2.3,2.7-2.4,5
		c-4.1,4.6-4.2,4.7-4.2,4.7c-1.3,0.1-5.5,7.5-7.9,7.7c-0.1,0-0.3-0.1-0.4-0.1c-1.5,4.1-3.1,3.8-6.4,6.4c-4.7,3.9-8,6.8-14.4,7.4
		l-0.9,0.1c-5.5,0.4-11.1-3.6-12.9-8.6c-0.1-0.6-0.2-3.7-0.3-4.5c0-1-0.1-4.1-0.2-4.4c0.2-2.2,1.5-12.4,2-14.4l-0.1-0.6
		c-0.4-0.5-3.2-2.5-3.6-3.7c0,0,0.3-0.8,0.5-1.1l0.6-0.7c0.6-0.4,3.5-2.1,4.2-2.5c0.4-0.8,1.8-4.7,1.9-5.6c0.1-0.4,0.2-2.3,1-2.8
		l4.2-14c-0.4-1,0.3-2.7,0.1-3.9c-0.4,0-1.7,0.8-2,0.6c-2.4-0.8-5.4-2.2-5.8-5.1c0-0.1,0.3-0.9,0.4-1.2c7.4-2.5,12.1-4.1,13.7-11.9
		l0.7-6c0.1-0.5,0.8-2.9,1-3.4c0.3,0,1.7,0,1.9-0.1c2.4-0.2,6.6,0.5,7.1,3.6l1.1-0.7c-0.7,1-0.9,3.8-0.9,5.1l0.1,1
		c1.2-0.9,5.5-3,6.8-3.1c1-0.1,2.8,1.4,3.2,2c0,0.1-0.3,1.3-0.5,1.6c-0.5,0.6-0.5,0.7-0.5,0.7c0.1,0.8,0.9,1.6,1.6,1l-2.6,2.8
		c-1.8-0.3-2.1,1-3.9,1.4c-0.1,0-1.6-0.1-1.5,0c-0.2,0.2-0.4,1.6-0.5,1.7c-1.6,2.5-4.5,4.2-6.2,6.4l-0.6-0.5
		c-1.5,1.9-1.3,6.5-1.9,8.8c-0.6,3-1.8,5.7-2.7,8.5c-0.1,0.1,0.1,0.9,0.1,1l-0.6,1.7l0.6-0.1l12.1-8.9c0.6-0.7,1.8-1.5,2.2-1.8
		l0.1,1.9c1.2-0.1,0.7-1,1.7-1.1c0.9-0.1,3,4,3,4.9c-3,3.8-7.5,8.3-11,11.1c-4.4,3.8-12.3,6.5-14.2,12.4l-0.6-0.5
		c-0.1,0-0.5,0.4-0.6,0.6l0,0.5c0,0.1,0.6,0.5,0.6,0.5c0,0.3-0.4,1.6-0.5,1.7c-0.7,3.6-1.6,11.8-1.4,15.5c0.1,1.3-0.1,6.2,1.9,6
		c1.2,0,1.8-0.4,2.8-1.3c13.2-9,24.1-20.6,33.5-33.4l0.1,1.2c1.3-0.1,2.5,0.3,3.4,1.5c-1,0.1-1.1,0.4-1.1,1c0.1,0.9,0.4,2.4,1.3,2.8
		l-0.3,0.7c0.1,0,0.2-0.2,0.4-0.2C128.3,233.1,128.3,234.2,127.8,234.3z M85.1,211.8c0.2-0.2,0.2-0.5-0.1-0.6
		C84.7,211.2,84.7,211.8,85.1,211.8z M99,201c-0.6,0.1-0.7-1-0.1-1C99.4,199.9,99.5,200.9,99,201z M106.9,256.9l0.1,0.6
		c0.6-0.3,1.2-0.8,1.3-1.3C107.8,256.3,107.1,256.8,106.9,256.9z M110.5,212.5c0.6-0.1,0.7-1.2,0-1.2
		C110,211.4,110,212.6,110.5,212.5z M111.8,184.3l-0.2-1.7l-0.8,0.1C111,183.2,111.2,184.1,111.8,184.3z M111.1,212.5
		c0,0.3,0.4,0.2,0.5,0C111.6,212.3,111.1,212.4,111.1,212.5z M120.7,235.7c0.5,0,0.4-1.1-0.1-1C120.1,234.7,120.2,235.6,120.7,235.7
		z M122.4,235.6c0.2-0.3,0.2-1.8-0.1-2.2C121.6,233.4,122.2,235.6,122.4,235.6z M124.4,232.8c0.4-0.2,0.3-0.5,0-0.5
		S124,232.8,124.4,232.8z"/>
	<path class="st1" d="M169.2,253l-6.4,0.3c-0.6,0.1-0.5-1.1-0.5-1.4c-0.2-3,0.5-5.9,0.5-8.8l0-1.7c-0.3-6.8-1.3-13.6-1.5-20.4
		l-0.1-1.5c0-2.7-0.3-5.7,0.4-8.2l-0.6,0.1c-4.3,0.4-8.5,7.3-12.2,7.6c-0.3,0-0.5,0-0.8-0.1c-5.7,4.8-5.9,4.8-5.9,4.8
		c-1.2,0.1-2.7,10.2-2.7,11.5c0.1,0.1,0.4,0.3,0.4,0.5c-2.3,6,0,17.9-3.2,20.7l-2,0.2c-3.8,0.4-6.6-2.7-6.8-6.7
		c-0.1-9.3,3.2-17.7,3.1-25.7c-0.1-1.5-2.5-2.3-2.7-4.4c0.1-3.4,4-1.3,4.6-3.5c1.7-6.5,3.3-13.1,4.8-19.9l0.7-1.2
		c1.8-3.7,1.9-8.3,3.1-12c1-2.2,6.3-16.7,7-17.2l0.3,0.6c1.5-4.3,5.4-5.9,8.6-6.2l0.5,0c1.2-0.1,9.1,2,9.3,3.9l-0.7,1.2
		c1.4,0,2.7,2.7,2.8,4.1c0,1-0.5,1.1-0.5,2l1-0.1l0,0.5c-0.1,0-0.6,0.6-0.5,1.1c0.1,0.8,0.2,2.3,1,2.6l0.2,4.5l0.3,0.5l0.6,25.4
		c-0.5,0.2-0.5,0.7-0.4,1.1c-0.1,0.5,0,0.9,0.4,1.5c0.2,3.1,0.4,18,0.5,21.4c0.1,0.9,0.8,7.9,0.7,8.7l0,0.5
		c-0.1,0.4-0.4,1.7-0.5,1.9l0.1,0.6l1-0.6c-2.6,3-0.6,9-1.8,12.4l-0.5,0c-0.2,0.4-1.3,1.4-1.4,1.9l0-0.5c0-0.3,0.4-1.2,0.4-1.3
		C169.6,253.4,169.3,252.9,169.2,253z M140.3,235.2c-0.5,0-0.5-1.2,0-1.3C140.8,233.8,140.8,235.1,140.3,235.2z M142.9,189.7
		c0.6-0.1,0.5-1.2-0.1-1.2C142.3,188.6,142.4,189.8,142.9,189.7z M143,197.2l0.7-1.2L143,196L143,197.2z M144.9,206.3
		c0.5,0,0.5-1.3,0-1.3C144.4,205.1,144.4,206.4,144.9,206.3z M144.5,209.5l0.5,0c0.1,0,10.1-5.1,14.3-7.3c0.3,0,1.6-1.1,1.8-1.3
		c0-1.2,0.1-7.4,0-8.5c-0.1-2.2-0.3-8.4-0.2-8.6c-0.1-0.6-0.8-3.9-0.7-4.5c0-0.1,0.5-1.6,0.5-1.7c0-0.5-1.8-9.4-2.6-7.2
		c-0.1,0-0.6,0.6-0.6,0.7c-0.9,1.6-4.3,4.8-4.6,5.7c0,1,0,3.1-0.4,3.8c-0.1,0.3-1.7,2.2-1.9,2.6c-0.8,1.6,0,5-0.8,6.8
		c0,0.1-1.1,0.5-1.2,0.6c-1.1,3.3-1.6,7.5-2.7,10.7c-0.2,0.5-0.1,0.7-0.1,0.7c0,0.1,0.6,0.6,0.6,0.6
		C146.4,204.5,145.2,207.8,144.5,209.5z"/>
</g>
<g class="st0">
	<path class="st1" d="M187.4,248.5l3.3-33.5l0.7-2.5c0-0.3,0.2-0.7,0.2-0.9c1-7.6,3.1-23.3,3.1-23.7l0.1-7.2c-0.6,0.1-2,0.8-2.1,0.8
		c-2-1.1-5.8-5-5.8-8c0-5.4,22.4-13.1,27.8-13.6c12.5-1.2,27.4,4.9,32.1,18.8c0.6,2.1,1.9,5.5,1.9,8.2c-1.3,15.2-4.9,21.9-13.9,34.1
		c-0.7,0.8-1.2,2.6-2.1,3.3c-5.1,3.5-9,10.4-13.8,15.4c-2.7,2.6-6.5,3.7-9.2,6.2c-1.2,1.1-2.4,3.1-3.6,4c-0.5,0.4-3.8,2.5-4.2,2.9
		c-1.7,1.2-5.2,4.2-6.9,4.9l-1.2,0.1l-2.2,1.4c-0.1-1-6-1.1-6.1-6.7C185.3,251.2,186.5,249.5,187.4,248.5z M193.8,240.7
		c0.5,0,0.5-1.2,0-1.2C193.3,239.6,193.2,240.7,193.8,240.7z M198.1,244c0.1-0.4,1.3-1.7,1.4-1.9l0.6-0.1c1.7-1.4,9.6-8,11.2-9.7
		c10.7-10.2,28.2-29.5,28.3-47.1c0.1-13.4-11.9-16.4-21.6-15.5c-0.6,0.1-4,0.5-4.7,0.6c-1.7,2.1-7.2,1.2-9,4.6
		c0.3,14.3-1.2,28.6-4.1,42.9c-0.3,1.8-1.5,5-1.7,6.7l0,7.9l-0.4,6.8c-0.2,0.3-0.7,2.4-0.7,2.5C197.4,242,197.8,243.7,198.1,244z"/>
</g>
<g class="st0">
	<path class="st1" d="M280.8,260.7c-2.2,0.2-3.4-0.2-3.6-2.9c0-0.5-0.1-1.9-0.1-2.1l1.8-13.7c1.6-3.3,0.9-11.2,3.2-12.6
		c-18.1-11.6-25.4-25.9-27.4-47.1c-0.5-5.6-1.1-10.1-0.8-15.8c0.2-0.4,1.4-1.3,1.8-1.3c0.1,0,2.2,0.6,3.2,0.9
		c5.3,1.9,6.5,3.5,7.1,9.3c0.1,0.8,0,1-0.5,1.9l0.4,8.6c1.3,13.4,5.8,23.6,14.6,33.2c0.9,1,2.8,1,3.8,2.1c0.9-4.5,1.9-5.7,3.4-10.8
		c3.4-11.7,5.9-23.9,10.9-35l-0.1-0.6l3.2-12.7c0-0.1,1.1-1.5,1.9-2.1c2.9-0.3,7.9,3.4,8.2,6.7c0.5,5.8-7,23.4-8.5,28.7l-7.9,27.2
		c0,0.1-0.1,0.1-0.1,0.3c-0.3,1.2-0.4,1.6-0.3,2.7c0.1,1.3,0.3,1.8,2.2,2.5c-0.5,1.5-3,1.2-4.2,2.2c-0.3,1.3-1.9,7.5-2.3,8.9
		c-0.1,0.4-0.7,2.1-0.9,2.5c-1.6,3.3-1,21.8-4.7,22.1c-1.3,0.1-1.1-0.7-1.2-1.6C281.3,262.5,281,263.8,280.8,260.7z M287.8,212.8
		c0.6-0.1,0.5-1.2-0.1-1.2C287.1,211.7,287.2,212.9,287.8,212.8z"/>
</g>
<g class="st0">
	<path class="st1" d="M370.2,240.7c2.5-6.4,2.8-15.2,2.7-22.1c0.1-0.3,0.3-2.1-0.5-2.2c-5.3,1-7.7,0.3-11.3-3.7
		c-0.5-0.7-0.5-1.1-0.4-1.9c-0.1-0.6-0.1-1,0.5-1.9c1.4,0,8.1-0.6,9.6-0.9c0.3,0,2.2-0.3,2.5-1.3c1.3-11.7,2.2-24.1,2-35.8
		c-0.1-0.6-0.2-3.5-0.3-4.2c-2.8,2.1-5,4.2-8.3,4.5c-2.6,0.2-6.3-1.5-6.4-4.8l0-1.3c5.2-4.8,9.2-7.7,14.5-11.6
		c0.2-0.2,0.6-0.6,0.6-0.6l-0.2-7.1c3.8-0.4,6.3,0.2,9.6,1.9l16.8-6.5c0.3,0,2.7-0.4,3.6-0.5c1.2-0.1,4.2-0.3,4.5-0.3
		c1.3,0,4.6,0.6,4.6,0.9l0,1.5l2.6-0.2c0,0-0.1,0.5-0.3,0.8c-0.2,0.4-1.3,1.3-1.5,1.4l0.5,0.9c0.1,0.9-2.6,1.1-3.1,2.4l-0.8,0.1
		c-2.9,0.3-5.6,1.8-8.7,2.1c-0.1-0.1-0.4-0.2-0.4-0.3c-0.6,3-17,4.7-16.8,13.3l-0.1,0.7c0,0,0.7,0.3,0.7,0.5c0,2.8-1,6.3-0.9,9.1
		c-0.2,5.8,0.3,9.7-0.1,15.1c-0.3,2.6-1.5,7.1-1.4,9.7c0.1,1.3,0.5,4.2,0.5,4.2l1.5-0.1l11.6-4.1c0.7,0.1,1.2-0.5,1.5-0.8l0.1,0.6
		c2.5-1.9,6.2-3.7,9-4c0.5,0,3.7,0.8,3.6,1.7c0.1,3.9-3,2.9-4.6,4.4c-1.8,1.7-2.7,3.3-5.2,3.6c-0.8,0.1-1,0.1-1.6-0.6l-2.7,3.3
		c-0.8-0.4-1.5,0.4-1.6,1.3c-3-0.5-5.2,2.2-7.8,3.1c-4.4,1.6-5.7,0.7-5.7,6.6c0.1,0,0.4,0.1,0.4,0.1l1.2-0.8c-1,2.2,0.4,6.5-1.9,6.8
		l0,1.8l1-0.1c0,0.1-0.1,0.5-0.2,0.7c-0.1,0.3-0.8,2.8-0.7,3c-0.3,1.2-1,6.3-1.1,7.5c-1.5,0.9-1.6,5.2-1.8,6.8l-0.6-0.7l-0.6,1.4
		c-0.1-0.9-1.5-0.5-1.7-0.5c-1.2,0.1-2.1,0.8-3.3,1c-0.6,0.1-4-0.9-3.9-2C369.2,242.3,370.1,240.8,370.2,240.7z M374.3,204.9
		c0.5,0,0.5-1.3,0-1.3C373.7,203.7,373.7,205,374.3,204.9z M400.3,205.3l-0.6,0.8l0.1-0.8L400.3,205.3z M405.5,203.8
		c-0.5,0-0.5-1.2,0-1.3S406,203.7,405.5,203.8z M408.1,201.7c-0.5,0-0.5-1.2,0-1.3S408.6,201.7,408.1,201.7z M412.3,147.7
		c0.5,0,0.5-1.3,0-1.3S411.8,147.8,412.3,147.7z M417.2,146.6c-0.1,0-0.5,0.4-0.7,0.7l0.1-0.7l0.6-0.7L417.2,146.6z M418.7,144.7
		l-0.6,0.6l-0.1-1.2L418.7,144.7z"/>
</g>
<g class="st0">
	<path class="st1" d="M407.8,176.4c1.6-4.4,2.3-8.6,3.5-13.1c2-7.2,5.8-13.8,10.4-19.6c1.8-1.3,2.6-1.5,4.5-1.7
		c2.6-0.2,5.8-0.3,8.2,1.2c2.9,1.7,6.5,2.2,9.9,3.3c1.7,0.5,4.9,11.3,5.1,13.2c0.3,2.7-0.7,5.2-0.4,8l0,0.5c0,0,0.6,1,0.6,1.1
		c0,0.3-0.9,1.8-1,2.2c0.1,0.9,0.7,0.8,0.8,1.9l0.1,0.8l-0.9,2.7c0,0,0.7,0.8,0.7,1c0.1,1-2.8,13.2-3.4,14.8l-1.2-0.9l0.2,2.3
		l0.7,0.5c0.3,2.8-1.9,2.6-2.3,4.5c-0.1,0.4,0.4,3.2,0.3,3.6c0,0.1-0.9,1.2-0.9,1.2c-0.8,1.4-5.3,13.8-5.8,13.8
		c-0.4,0-1.3-0.4-1.5-0.4l0.1,1.2c0.5,0,0.5-0.6,1.1,0.4c-0.2,0.8-1,0.9-1.5,0.8c-2.8,4.9-7,8-12.2,8.5c-10,0.9-16.7-7.3-17.7-18.3
		C404.3,198.5,406,187.6,407.8,176.4z M416.3,217.2c0,0.1,0.5,0.9,0.7,1c0.6,0.7,2.3,2.2,2.3,2.2c0.1,0.1,0.4,0.1,0.7,0.1
		c3.1-0.3,8.1-8.5,9.1-10.5c0.8-1.5,4.2-8.9,4.9-10.7c2.3-5.6,3.6-12.7,4.6-18.6c0.3-1.3,0-2.8,0.6-4.2c0.6-6.3,1.3-11.2,0.7-16.7
		l-0.1-0.8c-0.4-3.8-0.8-9-5.2-8.5l-0.5,0.6c-0.4,0.3-1.7,1.3-2.3,1.5c-0.6,0.1-1.2-0.7-2-0.6c-0.1,0-0.4,0.2-0.4,0.2
		c-0.9,1.1-8.1,11.2-8,12c0.2,2.3-0.9,9.5-2.7,9.7c0.3,3.3-1.5,6-1.2,8.9l-1.4,0.1c0,0,0.2,0.5,0.2,0.6c0.1,0.1,0.6,1,0.6,1.2
		c0.3,3.6-1.5,7-2.1,10.4c-0.6,3.3-0.5,7.4-0.1,11c0.1,0.8,0,1.5,0.7,2.1L416.3,217.2z M415.5,196.8c-0.5,0-0.6-1.2-0.1-1.3
		C415.9,195.4,416,196.7,415.5,196.8z M440.6,152.2c0.5,0,0.4-1.2-0.1-1.2S440.1,152.2,440.6,152.2z"/>
</g>
<g class="st0">
	<path class="st1" d="M457.8,227.3c0.3-2,1.5-11.6,1.6-13.6c0-0.4-0.2-0.9-0.2-1.3c-0.4-4,1.6-8.7,1.9-12.6
		c0.2-3.5,1.4-8.8,0.5-12.3l3.5-30.3l0-0.5c-0.1-1.2-1.5-2.1-2.5-1.6l-0.4-0.3c-1.5-1.1-4.2-3-5.3-5.1l0-0.5l0.6-0.7
		c7.2-7.1,16-9.9,26-10.8c0.8-0.1,3.5-0.2,3.7-0.2l0.6,0.5c0.5-0.2,1-0.2,1.7-0.3c7.5-0.7,23.2,2.7,24,11.2
		c0.9,9.3-4.4,14.6-9.4,21.8c-0.8,1.1-1.3,3.6-3,3.8c-0.1,0-1.1-0.5-1.2-0.5c-0.6,0.1-0.6,1.6-0.6,1.9c-1.7,0.2-0.9,3.2-2.4,3.3
		c-0.1,0-0.3,0-0.5-0.1c-0.8,1.1-2.7,3.2-2.7,3.2c-0.5,0.6-1.8,1.5-2.2,1.5l-1.4,0.1c0,0.3,0.7,1.9,0.6,2.1c-1,2.8-8.7,5-8.2,10.7
		c0,0.3,0.2,1,0.2,1.1c0.7,1.1,5.1,4.7,6.2,5.5c0.4,0.2,3.6,1.1,4,1.3c0.1,0.1,1.1,0.8,1.3,1c2,2.3,11.2,4.1,16.1,5.1l1,0.2
		c0.1,0,0.3,0.1,0.4,0.1c1.4,0.3,2.3,2.4,3.7,2.2l0.1,1.5l-0.5,0l-0.6,0.7c-0.5,0.4-1.9,1.3-2.2,1.4c-0.1,0-2-0.3-2.1-0.4
		c-2.1,0.1-4.4,0.4-6.3,0.1c-1.7-0.2-3.2-2-4.9-2.4c-1.9-0.5-3.9,0-5.7-0.6c-6.4-2.4-12.8-5.6-17.5-10.9c-0.4-0.3-3.5-4.4-4-4.9
		c0,0-0.4-0.5-0.6-0.5l0.1,0.8c0.4,4-0.4,13.3-1.9,15.8l0.5,0l0.4,4.7c-3.3,3.3,0.2,8.9-4.6,11c-1.5,0.7-0.4,1.7-2.9,2.6
		c-0.6,0.1-0.8-0.6-1.6-0.5c-0.6,0.1-0.9,0.2-1.5,0.7c-1.1-0.5-1.9-1.1-2.6-1.9C457.1,230,457.7,227.9,457.8,227.3z M459.4,232.5
		l0.6-0.1C460,232.4,459.8,232.3,459.4,232.5z M466.1,230.7c-0.5,0-0.6-1.1-0.1-1.2C466.6,229.5,466.8,230.6,466.1,230.7z
		 M475.2,169.3c0,0.4-1.2,3.9-1.3,4.3c-0.6,3.4-1.3,10.6-1,13.5l0.1,0.6c3.2-1.7,4.1-5.8,7.3-7.1l0.6-0.1c6-7.4,22.7-20.5,21.7-31.4
		c0-0.3-0.3-1.7-0.3-1.9c-3.1-1.6-9.3-2-12.4-1.7c-1.5,0.1-14.3,3-14.1,4.9c0,0.4,0.6,1.9,0.7,2.3l-0.7,10.6l-0.5,1.3
		C475.3,165.5,475.2,168.6,475.2,169.3z M510.7,214.7c0.6-0.1,0.5-1.2-0.1-1.2C510.1,213.6,510.2,214.8,510.7,214.7z M516.4,214.2
		c-0.1,0-0.2-0.5,0-0.5C516.8,213.6,516.8,214,516.4,214.2z"/>
</g>
</svg>
