<svg id="Layer_1" data-name="Layer 1" xmlns="http://www.w3.org/2000/svg" viewBox="0 0 385 385"><defs><style>.cls-1{fill:#f6d3c7;}.cls-2{fill:#fefefe;}</style></defs><title>earth</title><path class="cls-1" d="M182.9.2h19.7c.2.5.7.3,1,.3a71.9,71.9,0,0,1,8.1.5c4,.4,8,.9,11.9,1.6s9,1.6,13.4,2.6a185.6,185.6,0,0,1,22,6.6c5.4,1.9,10.7,4.2,15.9,6.6s7.9,4,11.8,6.1c5.9,3.4,11.6,7,17.2,10.9A178.6,178.6,0,0,1,323,50.8a121.8,121.8,0,0,1,8.9,8.7c3.3,3.6,6.6,7.2,9.7,11s5.5,6.9,8.1,10.5a200,200,0,0,1,11.7,18.6q3.5,6.2,6.3,12.6c2.4,5.1,4.6,10.4,6.5,15.7a208.4,208.4,0,0,1,6.3,21.8c.9,3.7,1.6,7.5,2.3,11.3s.9,6.3,1.2,9.5.9,7.7,1,11.7c0,.2-.2.5.2.7v19.7c-.4.2-.2.7-.2,1a54.2,54.2,0,0,1-.6,8.1c-.4,4.1-.9,8.1-1.6,12.2s-1.6,8.8-2.6,13.1a168.6,168.6,0,0,1-6.6,22,156.7,156.7,0,0,1-6.6,15.9c-1.9,4-3.9,7.9-6.1,11.8-3.3,5.9-7,11.6-10.9,17.2A167.1,167.1,0,0,1,334.6,323a121.8,121.8,0,0,1-8.7,8.9c-3.6,3.3-7.2,6.6-10.9,9.7s-7,5.5-10.6,8.1a200,200,0,0,1-18.6,11.7c-4.1,2.3-8.3,4.4-12.5,6.3s-10.5,4.6-15.8,6.5a206.7,206.7,0,0,1-21.7,6.3c-3.8.9-7.6,1.6-11.3,2.2s-6.5,1-9.8,1.3-7.6.9-11.4,1c-.3,0-.6-.2-.7.2H182.9c-.3-.4-.8-.2-1.1-.2a55.2,55.2,0,0,1-8.1-.6c-4-.4-8.1-.9-12.1-1.6s-8.8-1.6-13.2-2.6a185.6,185.6,0,0,1-22-6.6,146.2,146.2,0,0,1-15.8-6.6c-4-1.9-8-3.9-11.9-6.1-5.9-3.3-11.6-7-17.2-10.9a189.1,189.1,0,0,1-19.1-15.4c-3-2.8-6.1-5.6-8.9-8.7S47,318.7,43.9,315s-5.6-7-8.2-10.6a193.8,193.8,0,0,1-13.2-21.3c-2.9-5.6-5.6-11.4-8.1-17.3a207.5,207.5,0,0,1-7.9-23.4,184.6,184.6,0,0,1-5-26.3,106.9,106.9,0,0,1-1-12.7c0-.3.1-.6-.3-.8V182.9c.7-1.5.3-3.1.4-4.7.4-3.2.7-6.5,1-9.7s1.2-8.7,2.1-13a168.4,168.4,0,0,1,4.5-18.3C10.4,130,13,123,15.9,116c.3-.7.5-1.7,1-2s1.3.4,2,.7h.7c.1-.4.1-1,.6-1.3s.3.9.9.9,1.6.5,1,1.6a1,1,0,0,0,.5,1.5,4.4,4.4,0,0,1,3.1,3.5,1.4,1.4,0,0,0,1,1.1c-.3,0-.6.1-.8,0s-1-.2-1.2.3.3.6.6.9a27.2,27.2,0,0,0,3.8,2.9c.6.3,1.2.5,1.6.1s-.1-1-.4-1.5l-.3-.2c-.8-.2-.8-.7-1-1.5a12.9,12.9,0,0,1,2.1,1.7,1.7,1.7,0,0,1,.1,1.7c-.2.6-.7.5-1.1.4s-.9.5-.8,1.1a12.5,12.5,0,0,1-.8,8.1c-.8,2-1.1,4.1-1.7,6.1s-.2,4.3-.2,6.4a2.8,2.8,0,0,1-.4,2c1.3.3,1.8.9,1.3,1.9a21.2,21.2,0,0,0-1,3.6c-.1.5-.5,1-.2,1.6a2.1,2.1,0,0,1-.6,2,1.2,1.2,0,0,0-.4,1.7,1.5,1.5,0,0,1,.1,1.9c-1,1.6,0,3.2-.2,5.1,1-1.2.8-2.3.8-3.4s.6-2.6.7-4a17.7,17.7,0,0,1,.6-3,7.1,7.1,0,0,1,0,4.1,2.8,2.8,0,0,0-.1,1.3,29,29,0,0,1,.2,5.1,19.4,19.4,0,0,1-.7,4.2A3.2,3.2,0,0,0,27,175a20.7,20.7,0,0,0,1.9,3.2,19.1,19.1,0,0,0,3.7,3.8,1.8,1.8,0,0,0,2.5,0c1-.9,1.8-.7,2.6.4s2.7,4.4,5.7,4.9c1.4.3,2.8,1.3,4.4,1.1a.7.7,0,0,1,.6.3c.8,1.7,2.4,2.8,3.8,4s1,1,.8,1.8a1.8,1.8,0,0,0,2,2.3c1.1-.1,3.3,1.3,3.5,2.3s.3,1,.6.7.6,0,.8.2a1.5,1.5,0,0,0,.9.4c1.7-.2,2.8.8,4,1.8a2.9,2.9,0,0,0,2.5.8c1.3-.2,1.4-.4.7-1.5a2.5,2.5,0,0,1-.4-.7,10.1,10.1,0,0,0,1.3-.9c1.2-1.3,2.6-1.2,3.4.4a12.7,12.7,0,0,0,3,4,3.2,3.2,0,0,1,1,3.1,8.9,8.9,0,0,0,.2,4.3c.4,1.3,0,2.2-.9,2.6a5,5,0,0,0-2.4,3.5,1.9,1.9,0,0,1-1.7,1.6c-.9.1-1.3.5-1.2,1.4a7.5,7.5,0,0,1-1,3.3,2.3,2.3,0,0,0-.2,2.1,1.7,1.7,0,0,1,0,1.2,1.2,1.2,0,0,0,.4,1.1l2,2.2-1.8,1.4a2.4,2.4,0,0,0-.5,3c.3.8,1.3,1.5.7,2.5s-.2.8.3,1l1.3.7c2.6,1.6,4,4.3,5.5,6.8,2.5,4,4.8,8.2,7.5,12.1.4.5.9,1.1.6,1.8a1,1,0,0,0,.2,1.1,29.8,29.8,0,0,0,4.3,4.4c2.2,1.6,4.7,2.8,7,4.5s2.6,2.3,3.9,3.3,2.3,2,2.2,3.7.3,1.2.3,1.8c.1,2.4.8,4.9-.7,7.1a.6.6,0,0,0,0,.6,19.4,19.4,0,0,1,.3,5.9c-.3,1.6-.4,3.1-.7,4.6s-1,2.5.1,3.8,0,.5-.1.6-.6,1.7-.3,2.6,1.4,3.2,1.1,4.9a45.6,45.6,0,0,1-2.1,7.2c-.1.4-.2.7-.7.7s-.6.4-.3.9.9,2.3,1.4,3.4a2.2,2.2,0,0,1,.1,2.1,4,4,0,0,0,0,3.4c.1.2.2.5.1.6s-.2,1.7-.3,2.6.7.9,1.3.9.3-.6.3-1v-1.3c-.1-1,.6-.8,1.1-.8s1.1,1.7,1,2a42.3,42.3,0,0,0-.5,5c0,.8-.1,1.1-.8,1.3s0-.7-.1-.9a1.1,1.1,0,0,0-1.2-.6c-.6.1-.5.4-.2.9s-.2.7-.4.9-1.4,1,0,1.9l.5.3c.2.3,1.1.3.7,1s-.3,1.5-1.4,1-.8.1-1,.5a3.6,3.6,0,0,0,1.3,4c1.3.6,1.5,1.4.8,2.7a1.4,1.4,0,0,0,0,1.1c.1.2.5.3.9.2s1.7.5,1.4,1.2a1.9,1.9,0,0,0,.8,2.4c.5.5,1.3,1,.5,1.9s.1.2.3.4a12.6,12.6,0,0,1,2,2c.6.7,1.9.7,2,1.9s2.2,1.5,3.3,2.3a7.1,7.1,0,0,1,1.8,1.2,4.3,4.3,0,0,0,3.2,1.3,3.2,3.2,0,0,1,2.2.5c.2,0,.4.4.6.3s1.6.2,2.3.3,1.5.6,2.3.3a10,10,0,0,0-2.4-2.2l-2.5-2.2c-.7-.6-1.2-1.2-.9-2.2a2.3,2.3,0,0,0-.4-2.1c-.8-1.3-2.1-2.2-2.8-3.6s-.4-.6-.1-1,.6-.1.9-.1,1.8.5,2-.3,1.1-1.9,2.5-1.8a3,3,0,0,0,1.2-.3c.7-.2,1.5-.3,1.4-1.3a1.7,1.7,0,0,0-1.4-1.9,5.5,5.5,0,0,1-3.2-1.9c-.4-.6-1.6-.8-.9-2s1.6-.6,2.5-.7.1.1.2.2,2.4-.6,2.1-2.1-.3-.9.3-1,1.5-.6,2.3-.3.7.2,1-.1a.8.8,0,0,0,0-1.1c-.3-.5-.5-1.6-1.5-.7s-.5,0-.8-.2-1.7-2.3-2-3.8l1.4.8c1.6.9,3.2,1.9,5.3,1.8s1.9-.5,1.6-1.9.1-1.6,1.3-1.4l7.3.8c2,.2,2.8-1.2,3.9-2.4s.2-1.6-.2-2.4-.4-1.2.6-1.1,1.4.3,1.5-.4.8-.7,1.2-.4a4.1,4.1,0,0,0,4.4-.3l1.3-.9c.8-.7,2.2-.7,2.4-2a2.5,2.5,0,0,1,1.9-1.9,5.7,5.7,0,0,0,3.5-3.3,5,5,0,0,1,2-2.5c2.4-1.1,2.7-3,2.1-5.3a2.7,2.7,0,0,1,1.1-3.2c2.1-1.2,3.9-3,6.6-2.8a1.7,1.7,0,0,0,1-.3,8.8,8.8,0,0,1,6.7-1c.6.1,1.5.5,1.8-.3a2.2,2.2,0,0,1,1.8-1.3c.4-.1.9-.1.9-.7s1.1-3.1,2.1-4.4a3.4,3.4,0,0,0,1-2.9,5.7,5.7,0,0,1,.1-1.3c.2-.9,1.4-.9,1.5-1.6s-.5-1.5-.3-2.4a10.5,10.5,0,0,0,.5-4.7,14.4,14.4,0,0,1,.3-6.2c.1-.3.2-.8.4-.6s1-.5,1.2-.9a22.6,22.6,0,0,0,1.9-4.2,7.2,7.2,0,0,1,1.1-1.9,20.4,20.4,0,0,0,3.9-6.7c1.4-3.9.5-7.7-.5-11.6a1.4,1.4,0,0,0-1.7-1.3,2.9,2.9,0,0,1-2.4-.6,41.1,41.1,0,0,1-2.9-3,15.4,15.4,0,0,0-2.5-3.1c-.9-.8-1.9-1.7-3.2-1.4a7.1,7.1,0,0,1-4.5-.7,4.9,4.9,0,0,0-2.9-.8c-1.4.2-2-.6-2.5-1.7a3.5,3.5,0,0,0-2-2.4l-6-2.6a1.5,1.5,0,0,1-.9-1.1c-.8-3.5-2-6.9-4.5-9.6s-3.9-3.2-5.3-5.4a2.7,2.7,0,0,0-1.3-1.3,22.9,22.9,0,0,1-5-3c-2.8-1.9-5.8-3.1-9.3-2.2a3,3,0,0,1-2.4-.5c-2.4-1.5-3.9-3.9-6.1-5.5l-6.8-4.7a13.1,13.1,0,0,0-3.5-1.2c-.5-.2-1.2-.4-1.3-1s-.8-1-1.5-1h-3.1a2.6,2.6,0,0,0-1.5.4,3.8,3.8,0,0,1-4.4.3,7.3,7.3,0,0,0-5.4-.7c-.8.2-2.1.2-2.3-.7s-1.7-2-3.1-2.1a2.4,2.4,0,0,1-1.9-1.1c-.1-.3-.2-1-.8-.8s-.8.6-.8,1.2-.2.9-.9.9-1.1-.1-1.2-.9-1.9-2.5-3.7-1.3a10.7,10.7,0,0,1-5.2,2L82,194c-.4,0-1.3.5-1.3,1.2s-1.2,2.9-2.6,3.8a3,3,0,0,0-.8.8c-.4.7-.8.6-1.3.1a10.8,10.8,0,0,0-5-2.5,4.2,4.2,0,0,0-3.3.5c-2.4,1.4-4.3,1.2-6.2-.7l-.9-.8c-1.9-1.5-3.6-3-2.3-5.7v-.2c.2-1.4.1-2.8,1.5-3.8s.3-2.6-.6-3.1a10.6,10.6,0,0,0-7.6-1.6,20.1,20.1,0,0,1-4.9.1c-.4.1-.7-.1-.4-.6s1.6-3.1,2.4-4.7,1-4.4,2.8-6,.1-1.3-.8-1.4a24.2,24.2,0,0,0-3.8.2c-2.3.4-4,1.2-4.4,3.8-.2.6-.4,1.4-1.2,1.7l-3.8,1.4c-.3.1-.5.2-.8,0s-1.3-1.3-1.9-3.1c-1.1-3.6-.5-7,.8-10.4a11.8,11.8,0,0,0,1.2-3.6,3.7,3.7,0,0,1,1-2.2,22.5,22.5,0,0,1,4.1-3.4c.8-.4,1.6-.7,2.3,0a3.1,3.1,0,0,0,3.1.6c.5-.2,1.1-.6,1.6-.2s1.4.2,1.5-.8a1.6,1.6,0,0,1,1.9-1.5c.5.1,1-.2,1.4-.2s3.6-.6,4.9,1.3c.3.3,1,.2,1.4,0l1-.5a1.7,1.7,0,0,1,2,.3,2.5,2.5,0,0,1,.9,2.6c-.5,1.7.5,3,1.4,4.4a2,2,0,0,1-1.1,3.3c-.2.1-.6,0-.5.6h2.1c4.1-.4,5.7-2.9,4.7-6.9a17.3,17.3,0,0,0-1.4-4.4,2,2,0,0,1-.1-1.3c.4-2,1.9-3,3.4-4S75.1,146,76,145a4.1,4.1,0,0,1,2.3-1.6,4.8,4.8,0,0,0,2.5-1.4,2.7,2.7,0,0,1,1.6-.8,18.1,18.1,0,0,0,4-1.8,1.2,1.2,0,0,0,.6-1.8c-.6-1.7-.5-2.4.7-3.6a6.9,6.9,0,0,0,1.6-2.2,4.5,4.5,0,0,1,1.6-2,4.3,4.3,0,0,0,1.8-2.4,2.3,2.3,0,0,1,1.7-1.5,7.1,7.1,0,0,0,3.1-1.6c.4-.3.4-.8,1-1a24.7,24.7,0,0,1,3.6-1.1c.4-.1.9-.1,1.1-.6a1.4,1.4,0,0,0-.6-1.3c-.4-.2-.6-.3-.4-.8a8.3,8.3,0,0,1,1.5-2.3,20.7,20.7,0,0,1,7.1-4.4,5.2,5.2,0,0,0,2.6-1.7c.9-1.3,2.3-1.3,3.7-1.7-.3.8-1.1,1-1.2,1.6s-.8.9-.2,1.4a1.4,1.4,0,0,0,1.9.2,11.6,11.6,0,0,0,2.8-2.6,2.2,2.2,0,0,1,1.4-1.1,24.8,24.8,0,0,0,5.6-2.9,42,42,0,0,1,4.9-3.3,2.5,2.5,0,0,0,1.4-1.7c-2.1.7-1.3-.9-1.5-1.8a7.1,7.1,0,0,0-2.2,2c-.9,1.2-1.3,2.7-3.2,3.1s-3.4.9-5.3.6-2.2-1.3-1.2-2.8.7-.7,0-1l-.2-.2c.3-.3.5-.7,1-.9s.4-.7.3-1.1-.4-.5-.8-.5a6.6,6.6,0,0,0-2.4.3,42.6,42.6,0,0,0-7.4,3.7,4.7,4.7,0,0,1-2,1,1.9,1.9,0,0,1,.9-.9c1.6-1.1,3.3-1.8,4.3-3.5a4.4,4.4,0,0,1,2.3-1.5c4-1.4,8-3,12-4.2s6.1-2,8.4-4.4a10,10,0,0,1,4.9-2.8l.2.2c-.9,1.3-1.9,2.5-2.7,3.8s-1.9,4.2-3.7,5.8c-.1.1-.4.5-.2.7a1.3,1.3,0,0,0,1.1.2c2.3-.9,4.6-1.6,7-2.4a10,10,0,0,1,2.6-.5c-.4.7-1.2,1-1.4,1.8,2.6-.2,3.5-2.7,5.8-3.7-.6.7-.5,1.4-.7,2.3s1.2-.3,1.8-.3,1.2.4,1.5-.5l1-2.8c-.5-.2-1.1.7-1.2.2s-.6-.4-1-.3,1-1,.9-1.7-1,.5-1.6.3-.1-2-1.8-1.4a12.5,12.5,0,0,0-2.5.9c-.4.1-1.1.3-1.2-.1s-1.1-.8-2-.7l3-4-2,.3.4-.5c.3-.4,1-.6.6-1.5a13.4,13.4,0,0,1-.1-2c-.1-.4-.5-.3-.7-.3l-2.4.3c-.4,0-.8.1-1.1-.3s.7-.4.4-.9a40.3,40.3,0,0,0-6,.4c-1.5.1-2.8,0-3.8-1.4s-1.3-1.9-2.7-2.3a10.3,10.3,0,0,1-4.5-2.6c-.6-.6-.9-.6-1.5,0s-3.6,4.2-6.1,5.6-3.2,1.8-5.2,1.2-1-.2-1-1a3.3,3.3,0,0,1,1.7-2.7h-.9l-3.5.9c-.4.1-.8.3-1.1.1a7.7,7.7,0,0,0-5.4-.6c-1.4.2-2.5,1.2-4,1.3a44.1,44.1,0,0,0-6.2.9c-.9.2-1.7,1.2-1.4,2s-.2,1.4-.8,1.9-1,.2-1.1.9,1.2-.6,1.6.1-.1,1.2-.6,1.7l-1.6,1.2c-.6.5-1.7.8-1.6,1.5s1.4.5,2.2.6a1.8,1.8,0,0,1,1.8,2.2,4.3,4.3,0,0,1-1.6,2.6,17.5,17.5,0,0,1-6.7,3.3A.9.9,0,0,0,81,98c.6,1.3.5,2.8,1.3,4.1s.1.6-.2.6a6.5,6.5,0,0,0-2,.5c-.6.1-1,0-1.2-.7a2.1,2.1,0,0,0-2-1.9c-1.4-.1-1.3-.8-1-1.7a2.6,2.6,0,0,1,.8-1.3c.2-.1.4-.4.1-.5s-1.9-1.5-3.2-1.3-4.1.2-6.1.2a1.5,1.5,0,0,1-1.3-.6c-1.6-1.7-3.4-3.1-6.1-2.8a1.3,1.3,0,0,1-1.2-.2,2.3,2.3,0,0,0-1.8-.1c-.8.3-1.7.1-1.9-.6s-1-1-1.8-1a7.5,7.5,0,0,1,.4-1.6A18,18,0,0,1,62,81.4l.6-.6a5.4,5.4,0,0,1,3.1-2l2.7-.8a6.5,6.5,0,0,0,3.1-1.9,6.6,6.6,0,0,1,2.3-1.8c-.1.9-.8,1.3-1.1,1.9a3.2,3.2,0,0,1-2.5,2.1,1.8,1.8,0,0,0-1,1.2c.8-.2,1.4,0,2-.2s1.3-.4,1.6.6.8.5,1.4.4a14.3,14.3,0,0,0,4.4-1.9,2.1,2.1,0,0,1,1.7-.2c2.3.6,4.5.9,6.5-.8-.2-.1-.3-.3-.5-.3-2.3-.3-4.3-1.5-6.6-1.7A1.8,1.8,0,0,1,78.1,74c1,.6,2.1,1.1,3,.3s4-2.4,6-3.5a5,5,0,0,1,3.8-.3,1.3,1.3,0,0,1,.5,2l-1.3.8a1.4,1.4,0,0,0,2.2.6c.2.5-.7,1.2.4,1.2a9.2,9.2,0,0,0,3.7-.4c3-1.3,5.9-2.1,9.2-1.3l2.8.5c2,.3,3.7-.9,5.7-.8a26.8,26.8,0,0,0,5.5-1.1,4.4,4.4,0,0,0,1.6-.6c.2-.1.3-.5.3-.7s-.4-.3-.6-.4h-1.2V70c1.2-.1,2.2-1.1,3.6-.7a2.5,2.5,0,0,0,2.9-1.1c-.5-.1-.9.4-1.3,0s.8-1.3,1.7-1.5a1,1,0,0,0,.6-.9c.1-.4-.3-.5-.6-.6a3.9,3.9,0,0,0-2.4-.6l-2.4.2a1.1,1.1,0,0,1-1.1-.9c.1-.5.3-1.4,1-1.2a17.3,17.3,0,0,0,3.2.3c1.9.2,4.1.7,5.3-1.6l.4-.3c1.9-.7,3-2.4,4.4-3.7s.5-.3.3-.8c-4.5.4-9.1.8-13.6,1.5,0-.9.7-.9,1.2-1.2s.9-.4.2-1a.7.7,0,0,1-.1-.5c-.1-.7-.6-.8-1.1-.6a1.3,1.3,0,0,1-1.2.1,3.9,3.9,0,0,0-2.6.2c-1.1.3-2.2.9-3.4.1a1.7,1.7,0,0,0-1.4.1c-2.8,1.2-5.6.6-8.5.4h-.3c-1.8-1.3-1.9-1.3-4.1-.9l-3.6.5-6.4.9c-2.1.3-4.2.8-6.3,1.2-.1.1-.2,0-.3,0s.7-.3.7-.9a23.4,23.4,0,0,0-5.3.1c-2.4.4-4.8.9-6.6,2.7a1.7,1.7,0,0,1-1.8.4l3.2-2.7a16.9,16.9,0,0,0-6.7,1.2,20.7,20.7,0,0,0,2.5-1.5c.6-.7,1-1.4,1.9-.5a.4.4,0,0,0,.5,0,12.8,12.8,0,0,1,4.3-.6A142.8,142.8,0,0,0,91,54.7,16.5,16.5,0,0,0,97.6,53c1.1-.6,1.1-1.4,0-2.1l1.5-.3c1.4-.5,3-.6,3.9-2.1a7.8,7.8,0,0,1,3.5-3.2c1.6-.7,2.5-2.3,4-3.1s1.4-.7,1.1-1.7.5-.7.8-.8c2.8-1.3,5.7-2.3,8.2-4.3a77,77,0,0,1,11.7-7l.2.2a35.8,35.8,0,0,1-5.2,3.4c-1.4.7-1.4.8-1.2,2.4a12.4,12.4,0,0,0,4.4-2.3c.2-.2.6-.6,1-.2s-.2.6-.5.9h-.3c-1.9,1.4-4.2,2-6.2,3a60.3,60.3,0,0,1-7.7,3.7,4.9,4.9,0,0,0-2.3,1.5c-.3.5-.3.7.3.7h2.8c-1.3.7-2.6.6-3.4,1.8l5.1-.4c.7-.1,1.3.4,2,.2l3.5-.7c1.1-.2,1.1-.2.8.9,2-.6,2-.6,3.4-2.2,0-.1.1-.1.2-.1,3.9-1.9,7.7-3.8,12-4.8a3.7,3.7,0,0,1,2.3-.2,5.2,5.2,0,0,0,3,.4H148c.5.5-1,.6-.1.9s0,.8.7.8,1.3,1.3,1.4,2,.3,1.8,1.8,1.3a8.4,8.4,0,0,0,2-.8c.3-.1.4,0,.6.3s0,.4-.2.5l-.8.3c-.8.2-.8.6-.2,1.2h-1c-.6.1-.5.6-.5,1.1s-.2.8.4.8a5,5,0,0,0,2.7,0l2.8-1.3a2.4,2.4,0,0,0,1.3-1.1c-.3-.4-.8,0-1-.5h1c.5,0,1-.1,1.2.6a1.4,1.4,0,0,1-.5,1.5,3.4,3.4,0,0,1-2,.6,4.8,4.8,0,0,0-3.8,2.5,4.7,4.7,0,0,0-.3,3.1c.3.9.5,1.5,1.3,1.8s2,.8,2.3,2.1a1.5,1.5,0,0,0,1.3,1.1c1.5.3,2.6,1.7,4.3,1.9l.5.3c1.5.5,2.9,1.4,4.8.9s2.7-.9,4-.4a8.7,8.7,0,0,0,4.5.7c1.4-.3,2.6-.7,3.3-2.1a17.7,17.7,0,0,1,1.2-1.7,4.1,4.1,0,0,0,.7-1.7c-.1-.7.2-.9.7-1.2s3.4-1.9,4.2-3.9a2.3,2.3,0,0,1,.9-1.1,6.7,6.7,0,0,1,4.1-1.1A21.4,21.4,0,0,0,202,43.2l2.5-1c2.3-.7,4.6-.1,6.9-.4s4.2-.1,6.3-.8l3.7-.9c-1.1-.6-2.2-.5-2.9-1.3h0c1.1.1,2.2.7,3.4.5-.5-1.3-.2-2.9-2-3.4,1-.9.9-1.5-.5-2.8h1l.9.2c1.1,0,1.3-.4,1-1.5h.9c.4,0,.8,0,.9-.4s-.3-.5-.5-.8h1.8c.5,0,.5-.2.3-.5l.2-.2c1.3.6,2.6,1.2,2.2,3.2a4.5,4.5,0,0,0,.9-2c.1-.8-.5-1.3-.5-2.1l.4.3c1.4,1.3,1.4,1.3,3.2.2s.8.1,1,.4a2.5,2.5,0,0,0,2.6.4c.2,0,.6-.2.6-.4s-.2-.4-.5-.5-.9-.2-1.1-.6.6-.2.5-.7-.1-.2,0-.4,1.2-1.2,2.3-.7,1.6.4,2.3.8a.9.9,0,0,0,1.2-.5c.3-.7.3-1.1-.5-1.5s-1.9-1.2-1.5-2.3-.2-.7-.5-.8l-4.5-.9a4.4,4.4,0,0,0-2.8-.2,1,1,0,0,1-1.3-.3,1.1,1.1,0,0,0-1.5-.2c-.5.5.2.9.5,1.1a3.8,3.8,0,0,1,1.8,2.8c-.9.4-1.9.3-2.8.9s-1,1.4-2,1-.9,0-1,.5.5.6.8.8l.9.4c.2.2.3.4.2.6s-.4.2-.7.1-.9-.8-1.3.1-1.1.6-1.2,1.2-1.3,0-.5-.9.2-.9-.1-1.4l-1.5-2c1.7-.3,1.4,1.7,2.6,2s-.3-.9-.1-1.5.2-1.7-1.2-2.1l.4-1c.1-.9-.7-1.9-1.4-1.4s-1.1.1-1.6-.2.7-.8,1.3-.4,1,.2,1-.6a2.5,2.5,0,0,0-.4-1.2c.6-.4,1.2.6,1.8-.2a4.4,4.4,0,0,1,3.1-1.7c.6-.1,1.3.1,1.9-.3s.5,0,.5-.4-.1-.5-.3-.5c-1.8-.6-3.5-1.9-5.5-1.5s-1.5-.3-2.1-.2a1.7,1.7,0,0,1-1.9-.5c.2-.3.8.5.7-.3s-.8-.6-1.2-.9l-.2.2c-.2.5.5.5.7.8v.2c-1-.2-1.8.7-2.8.6s1-1.3.1-1.9a2.5,2.5,0,0,0-2.6-.3c-1,.6-1.7.4-2.4-.7a22.2,22.2,0,0,0,5.1.3,1.6,1.6,0,0,0,.9-.3c-.2-.2-.4-.5-.7-.6a35.1,35.1,0,0,1-6.1-2.4c-2.2-1-4.6-.9-6.9-1.3a66.3,66.3,0,0,0-10-.6l-6.1.2h-.6c-4.3.6-8.5,1.1-12.7,1.9s-5.7.9-7.6,3.6a20.3,20.3,0,0,1,5.5-.1c-4.4.3-8.8.3-13,2.3.3.3.8.1.9.6a3.4,3.4,0,0,1-1.7.3,4.7,4.7,0,0,0-1.7.3,11.2,11.2,0,0,0-2.6.8c-.5.2.6,1-.3,1.1s-.7-.6-1.3-.5-1.2,0-1.7.4l-1.1.5c-3,1.4-6.2,2.4-8.9,4.3a3.3,3.3,0,0,1-1.9.8l-.2-.2c.1-.2.5-.3.5-.9-2.2.3-4.3,1-6.4,1.4s-4,1.5-6.1,2.1c-5.9,1.7-11.7,3.7-17.6,5.5a111.9,111.9,0,0,1-11.4,2.9c-1.8.4-3.7.5-5.2,1.6a3.3,3.3,0,0,1-1.9.6c-1.7-.1-3.4.1-5.1-.1s-3.2,1.2-4.8,1.2a17.9,17.9,0,0,0-4.6.9c.7-.7,1.6-1.2,2.3-1.8A200.1,200.1,0,0,1,99.9,23.8c4.1-2.2,8.2-4.2,12.4-6.2s10.3-4.4,15.6-6.3a187.2,187.2,0,0,1,21.8-6.4c3.7-.8,7.5-1.6,11.3-2.2s6.3-1,9.5-1.3A110.9,110.9,0,0,1,182.2.5C182.4.5,182.7.6,182.9.2Zm78.8,72.3a13.2,13.2,0,0,1-2.8-.2c-.3-.1-.9-.3-1.1.2s-.8,1.1-.8,1.9-1.1-1-1.5-.4.6.6.8.9.3.2.5.3.6.3.3.8-.2.8.3,1a1.5,1.5,0,0,1,.9,1.1,1.9,1.9,0,0,0,.7,1.3c.3-.1.3-1.1,1-.5s.9.2.5.7.3,1.6,1.1,1.7a3.3,3.3,0,0,1,3,2.4c.1.3.4.5.2.8s-.7.1-1,0-1.4-.8-2.3-.3c.6.5.8,1.3,1.5,1.6s.6.4.4.7a.9.9,0,0,1-.8.6,3,3,0,0,0-1.5.5,2.3,2.3,0,0,0,1.7.8,1,1,0,0,1,1,.7c.2.4-.3.5-.5.8L262,91.1c-.2.2-.6.4-.3.8s.6.2.8,0a2.3,2.3,0,0,1,1.8-.1c.6.2,1.2.6,1.7-.3s.9-.2,1.3.1.5.3.8.3l6.6.2a2.2,2.2,0,0,0,2.4-1.5c.4-.9.7-1.8,1.1-2.6s.1-.7.4-.5,1.4,0,1.9-.3,1.1-.3.9-.8-.7-.2-1.1-.2a5.7,5.7,0,0,0-1.3,0c-.3,0-.5-.1-.6.3s-1.3,1.1-2.2,1-2.4-1.5-3.6-2.2-1.4-2-2.6-2.4a3.5,3.5,0,0,1-2.1-1.8,4.9,4.9,0,0,0-2-1.8l-1.6-.7.8-1.5c.5-1.4.2-1.8-1.2-2l-2.5-.5c-.2,0-.5.1-.5-.3a.5.5,0,0,1,.4-.6c.9-.1.5-.7.3-1.2s.7.1.7-.3a.9.9,0,0,0-.9-.7c-.2,0-.4,0-.5.2s.2.5.5.6Zm34.1,10-.9-.4c-.4-.1-.8-.1-.9-.6s.4-.5.7-.7.7-.6.2-.8a2,2,0,0,1-1.4-2c-.2-.7-1.4-1.1-1.8-.5a2.5,2.5,0,0,1-1.7.8c-1.4.2-1.8.7-1.5,1.8a5.5,5.5,0,0,0,1.2,2.4c1.7,1.6,1.2,3.3-1,3.7a12.7,12.7,0,0,1-3.4.4c-1.9.1-2.2.3-2.6,2.1a1.7,1.7,0,0,1-.6,1.1,13.8,13.8,0,0,1-4.4,2.1c-.7.1-1,.3-1,1s-.3,1-1,1.2-1.3-.1-1.6.4-2.1.5-3.1,0-.9-.6-1.3-.3.1.8,0,1.2.7.7-.1.8a2.2,2.2,0,0,1-1.6-.1,4.6,4.6,0,0,0-3.4-.6c-.4.1-1.1-.2-1.2.3s.3,1,.7,1.3a2.1,2.1,0,0,0,1.2.7,10,10,0,0,1,3.9,2.9,9.3,9.3,0,0,1,2.5,7.1c-.1,1.2-.6,1.7-1.7,1.4-3.9-1.3-8-1.6-11.9-3-1.2-.4-2.1.5-3.1.9s-.1.4,0,.7a15.5,15.5,0,0,1,1.3,3.6,8,8,0,0,1-.1,5.7,2.1,2.1,0,0,0,.8,2.7,1.4,1.4,0,0,1,.8,1.2c.5,3.1.5,3.1,3.6,3.1a2.7,2.7,0,0,1,2.6,1.4,14.5,14.5,0,0,0,1.7,1.8.9.9,0,0,0,1.3.1c1.6-1.6,3.5-1.2,5.4-1s2.1.3,2.4-1,.2-.5.3-.5,1.7-1.6,2.4-2.5.4-1.2-.2-1.7a1.4,1.4,0,0,1-.3-2,6.5,6.5,0,0,1,4.1-3.5c2.1-.5,2.1-.7,1.5-2.6s0-1.8,1.4-2,2.1.6,3.2.8,2.5.5,3.5-.3,2.7-.8,3.6-2.1h.5a3.4,3.4,0,0,1,3.5,1.6,15,15,0,0,0,1.9,2.5c3,2.9,7.1,4.3,10,7.3,1.2,1.3,2.5,2.4,2.1,4.4-.1.3-.3.8.3,1s.4.3.5.1.8-.7.5-1.2a.5.5,0,0,1,.2-.8c.6-.5.3-1,0-1.5l-.9-.9a1.1,1.1,0,0,1,0-1.3c.3-.3.6.1.9.3a3,3,0,0,1,1.4,1.5c.5-1.7-.7-2.2-1.5-3s-2.7-1.3-3-3-.4-.3-.7-.3a4,4,0,0,1-3.2-2.2,9.3,9.3,0,0,0-3.4-3.7c-1.1-.6-.7-1.9-.9-2.9s.9-.4,1.3-.7.5.2.6.5.2,1.7.9,1.4,1.3.2,1.5.7c1.2,2.5,3.7,3.7,5.6,5.4s3.4,2.3,3.6,4.6a7.5,7.5,0,0,0,1.4,3.3,38.7,38.7,0,0,1,4.6,7.5c.4,1,1.4,1.3,2.6,1.7l-.6-1.1a2.7,2.7,0,0,1,.1-1.4c1.1.1.5-.5.5-.9a1.9,1.9,0,0,0-1-1.7c-1.4-.9-1.5-2.6-2.3-3.9.7-.1.9.6,1.6.5s-.6-1.1.2-1.3,2.5,1.4,2.6,2.4a3.6,3.6,0,0,0,1.3,2.9,1,1,0,0,1,.2,1.2.8.8,0,0,0,.4,1.2c.6.3.7.8.9,1.2a3.8,3.8,0,0,0,1.4,2.1,6.3,6.3,0,0,1,2.1,2.2c.3.7,1,.6,1.4-.2s.4-.3.6,0l1.7,1.9c.6.5,1.3.7,1.7,0s.5-.3.9-.3.9,1,1.2,1.7c1.3,3.1,1.6,6.5,2.2,9.8a.8.8,0,0,1-.1.8c-.3.2-.5-.1-.8-.2l-1.4-.8c-.8-.5-1.6-1.6-2.6-.2a.7.7,0,0,1-1-.1c-1.6-1.5-3.7-2.3-5.5-3.7a20.9,20.9,0,0,1-2.8-2.4,2.4,2.4,0,0,0-2.9-.6c-.7.5-.8,1.8-.2,2.9l.3.4a2.2,2.2,0,0,1,.2,1.6c0,.5-.3.8-.8.4l-.9-.7a7.8,7.8,0,0,0-4.2-2.2,1.9,1.9,0,0,1-1.4-1c-.6-2.1-2.5-2.6-4.1-3.4s-1.1-.5-1.5-.3-1.5-.2-2.2-.5a7,7,0,0,1-2.6-1.9c-.3-.3-.5-.7-1.1-.2s-.7.1-.8-.3-.6-.5-.2-1,1.3-2.4-.3-4-1.1-.9-.3-1.7.4-1.4-.4-1.2a1.9,1.9,0,0,1-1.7-.5,1.8,1.8,0,0,0-2.2-.2c-.9.5-1.8,1.1-2.9.8a8,8,0,0,0-4.6.1,6.9,6.9,0,0,1-2.5-.1,6.6,6.6,0,0,0-2.4-.3l-5.1.6a11.2,11.2,0,0,0-6,2.6,2.1,2.1,0,0,1-2.4.3,5.9,5.9,0,0,0-2.9-.5,4,4,0,0,1-3.8-1.6c-.3-.3-.5-.7-1.2-.5a1.2,1.2,0,0,0-.7,1.3c-.3,1.9-.7,3.9-2.9,4.6s-4.1,4.5-3.5,7c.2.9.9,1.7.9,2.7s-3.4,5.2-4.9,5.4-2.5.8-2.8,2.8-.3,1.3-.8,1.5-1.8,2.3-1.8,3.8a4.2,4.2,0,0,1-1.4,3.2,4.4,4.4,0,0,0-1.3,2.4,11.2,11.2,0,0,1-1.2,3.2,4.8,4.8,0,0,0-.8,3.5c.2.8.8,1.4.6,2s.5,2.6,1.5,3.6a4.1,4.1,0,0,1,1.2,4.2,9.2,9.2,0,0,0-.8,2.7,4.9,4.9,0,0,1-1.7,3.8c-.5.4-.5.7-.1,1.1a2.5,2.5,0,0,1,1,2.5,23.8,23.8,0,0,1-.5,2.6,3.2,3.2,0,0,0,3,3.9c.7,0,1.1.2,1.2.9s.2.7.8.4a.7.7,0,0,1,.6.1c2.4,1.5,4,3.5,4,6.4a2.2,2.2,0,0,0,1.6,2.1,4.6,4.6,0,0,1,2.1,1.3l5.6,5.6c1.6,1.6,3,2,4.7,1a14.2,14.2,0,0,1,2.5-1.2c3.2-1.4,6.5-1.8,9.7-.2.5.2.8,0,1.2-.1,2.1-.9,3.9-2.3,6-2.9a7.3,7.3,0,0,0,2.2-.9,12.8,12.8,0,0,1,7.1-1.6c1.1-.1,1.8.6,2.1,1.8s.9,3.8.1,5.7a29.9,29.9,0,0,1,6.5-.9c1.7.1,3.2,2.6,2.7,4.2s-2.5,4.8-3.4,7.4a12.5,12.5,0,0,1-3.3,5.5,1.6,1.6,0,0,0-.3.9,23.7,23.7,0,0,0,1.1,8.7c.6,1.9,1.3,3.9.8,5.9a35.2,35.2,0,0,0-.9,9.1,3.8,3.8,0,0,1-1,2.6,2.8,2.8,0,0,0-.7,2.1,15.1,15.1,0,0,1-1.5,8.1c-.7,1.3-1.8,2.2-2.6,3.4a53.3,53.3,0,0,0-4.4,10.1c-.7,1.9-1.3,4.1-.4,5.9s2.2,5.9,4,8.6a1.5,1.5,0,0,1,.3,1.3c0,1.1-.3,2.2-.2,3.2a44,44,0,0,1,.5,5.1,4.5,4.5,0,0,0,1.4,3.6,1.8,1.8,0,0,1,.7,1.5,7.5,7.5,0,0,0,.5,2.6c.4,1.1.4,2-.5,2.7s.4,1.4-.1,2.1,1.5.8,2.3,0,3.3-2.7,4.9-4.1a59.8,59.8,0,0,0,7.5-6.8,118.3,118.3,0,0,0,7.6-9.9c1.7-2.4,3.8-4.6,4.5-7.6a7.3,7.3,0,0,1,2.5-4.1,7.1,7.1,0,0,0,2.7-5.4,6.5,6.5,0,0,0-.1-3.1,4.2,4.2,0,0,1-.1-4.2,44,44,0,0,0,3-5.2,8,8,0,0,1,1.3-1.9c1.3-1.7,3-3,3.9-4.9s1.7-2.6,1.8-4.1a30.1,30.1,0,0,1,1.9-8.4,1.4,1.4,0,0,0-.1-1.5c-.3-.4-.2-.8-.3-1.2a11.8,11.8,0,0,1,1.1-4.3c.4-.8.9-1.6.4-2.5s-.3-.8.5-.4.4-.3.5-.6-.5-1.2-.1-1.8c1.9-2.6,3.2-5.6,5.5-7.9s2.2-2.5,3.3-3.8a31.4,31.4,0,0,1,5.2-5.1,34.3,34.3,0,0,0,4.7-3.6,62.8,62.8,0,0,0,7.8-9.4c1.6-2.5,3.7-4.7,3.6-7.9,0-.3.4-.7-.1-.9a.9.9,0,0,0-1.2-.1,6.6,6.6,0,0,1-3.6,1.1,7.3,7.3,0,0,0-2.9.4c-1.1.4-2.2.3-3.3.7s-1.1-1.6-1.9-2.2-.5-.6-.1-1,.3-.8.3-1.3l.2-.2c1.1.3,2.2.4,2.9-.8a1.4,1.4,0,0,1,.9-.4,10.1,10.1,0,0,0,5.3-2.2l1.1-.5,3.7-1.2c.5-.2,1-.4.8-1.2s.3-1,.8-1.3a8.4,8.4,0,0,1,4.3-1.1c.9,0,1.2-.3,1.4-1.2a5.3,5.3,0,0,0-.1-2.8,86,86,0,0,0-3.9-14.9c-.1-.3.1-.7-.3-.7s-.6.3-.7.5a12.2,12.2,0,0,1-1.5,1.7c-.2.3-.5.5-.8.3a1.9,1.9,0,0,0-2.8.3c-.2.1-.4.4-.7.1a5.8,5.8,0,0,0-1.3-2.9,9.3,9.3,0,0,0-3.1-2.5,4.9,4.9,0,0,1-2.7-2.2,3.8,3.8,0,0,0-1.7-1.6c-1-.5-1.4-1.4-2.2-2.3a2.9,2.9,0,0,0,1.9-1c.3-.4.6-.3.9,0a23.4,23.4,0,0,1,2.9,3.5c.6.8,1.1,1.8,2.4,1.2s.7.2,1.1.5a12.9,12.9,0,0,0,6.6,2.4c1,.1,1-.3.7-1.1s-1.6-3.5-2.3-5.3c-3.1-7.6-5.8-15.4-8.2-23.4s-3.8-13.3-6.3-19.7a96.2,96.2,0,0,0-7.1-14.4,120.1,120.1,0,0,0-8.5-11.7c-3.6-4.3-7.6-8.2-11.5-12.1-.7-.7-1.5-1.4-2.6-1.1a5.7,5.7,0,0,1-2.2.2c-1.7.2-3.4.2-5.1.5a3.7,3.7,0,0,1-3.3-.8l1.1-.2c.2-.1.6-.4.1-.6s-2-1.3-3.4-.9a2.9,2.9,0,0,0,1.9,1.5,3.1,3.1,0,0,1-2-.5l-4.5-2.2c-.3-.2-.6-.5-.8.2h.1a22,22,0,0,1-3.7-3c-2.7-2.7-5.6-5.2-7.9-8.3l-5.4-7.1a.4.4,0,0,1,0-.6c.3-.4.4,0,.5.1,2.3,3.2,5.8,4.5,9.1,6.1.5.2.9.6,1.6.4s-.7-.8-.4-1.3.9-.2,1.3-.3.8.5,1.3.1c-1.7-1.7-2.5-1.9-4.8-1.3a1.8,1.8,0,0,1-1.4-.4l-4.1-2.6c-.2-.1-.5-.2-.6-.4s-1.1-1.4-1.8-1.8-.9-.3-.8-.9.8.2,1-.3a11.6,11.6,0,0,1-2-1.6c-.8-1.2-1.7-2.3-2.6-3.5s-3-5.3-4.6-7.9-2.2-4.5-3.9-6.5-1.6-1.2-2.1-2-2.3-1.6-3.6-2.2-2.7-.2-3.9-.8a17.4,17.4,0,0,0-6-1.3c-.6,0-.8.3-.8.9s.4,2.1,1.7,2.7a23.5,23.5,0,0,0,3.5,1.1c.6.2,1.1.4.9,1.2h-1.7a2.8,2.8,0,0,0,1.3,1.1,38.8,38.8,0,0,1,5.7,4,2.8,2.8,0,0,0,1.3.7c1.7.1,2.8,1.1,4.1,1.7s1.2.4,1.4.2.6-.1.7,0a7,7,0,0,1,1.6,1.3,13.7,13.7,0,0,1,2.6,5.1c-2.2-.6-3.5-2.6-5.7-2.8a1.8,1.8,0,0,0,.9,1.3c.6.4,1.4.6,1.6,1.2s2.5,2.3,3.6,3.6,2.1,3.4,3.6,4.6c-.6-.2-1.2-.9-1.8-.9a3.5,3.5,0,0,1-2.2-.8c-.3-.2-2.2.4-2.2.7s-.4.6-.8.3l-.6-.8c-1,.3-1.3,1.4-2.6,1.7,1.3.4,2.4,0,3.4.7s-.7.3-.5.7-.3,1-.6,1.4a4,4,0,0,1-1.2,1c-.4.3-.8.6-.2,1.3s.6.6.2,1.1-2.2,2-3.1,3.3a.8.8,0,0,1-1.1,0c-.4-.1-.9-.5-1.2-.1s-3.1,1.9-4.7,2.7-1.8.9-1.5,1.9a8.6,8.6,0,0,0,1.4,2.9c.5.9,1.2,1.6,1.7,2.4s2,.6,1.7,2,.4.2.6.3l1.5.7c2.4.9,4.7,1.1,6.9-.8a4,4,0,0,1,1.3-.7,1.8,1.8,0,0,1,2.6.5,29.2,29.2,0,0,0,4.6,4.7,1.8,1.8,0,0,1,1,1.7c-1.5-.2-2.3.1-2.8,1.1Zm61.5,171.2c.8.5,1.6.1,1.5-1.1s0-2.5,0-3.8a6.5,6.5,0,0,0-.4-1.9c-.1-.3-.2-.6-.6-.6s-.5.2-.7.5-.5,2-1.5,2.5-1.4,1.6-2,2.5a19.8,19.8,0,0,1-5.2,4.8,6.2,6.2,0,0,0-2.4,6.2,9.5,9.5,0,0,1,.1,2.9,10.3,10.3,0,0,1-1.6,4.1,2.8,2.8,0,0,0-.5,2.3,11.1,11.1,0,0,1,.4,3.6c0,.4.1.7.5.7s2,.3,2.8-.5a5.1,5.1,0,0,1,1.6-.9,3.8,3.8,0,0,0,1.6-1.7c1.7-3.1,2.5-6.5,3.6-9.9A82.5,82.5,0,0,0,357.3,253.7ZM84.9,172.8c-2.3-.6-4.2-2.1-6.5-2.6a3.1,3.1,0,0,1-1.5-.8,7.1,7.1,0,0,0-3-1.8,13.6,13.6,0,0,1-2.1-.2c-3.9-1.7-7.9-1-11.8-.5a3.4,3.4,0,0,0-2.2,1,1.5,1.5,0,0,0-.2.9c.2.5.5.2.8.2s2-.2,2.5.9a.4.4,0,0,0,.5.2c.5-.3,1,0,1.5-.2s2.5,1,3.1-.9h.2a4.3,4.3,0,0,1,3.8,1.3,4.6,4.6,0,0,0,4.5,1.7,1.7,1.7,0,0,1,1.7.4l-1.6,1.4h1.6a9.4,9.4,0,0,1,3.7-.2A7.9,7.9,0,0,0,84.9,172.8ZM222,53a38.5,38.5,0,0,1,3.7,1.3,9.9,9.9,0,0,0,6.9,1.4,6.6,6.6,0,0,1,2.8-.1c.7.2,1.5-.5,1.8-1.2s-.2-1.2-.7-1.6-1.1-.7-1.5-1.1-2.3-2.4-4.2-1.5h-.4c-1.4-.7-3.2-.3-4.6-1.1s-.4.1-.4.4-.5.4-.8.5-.3-.3-.5-.5c-1.3-1.9-2.8-3-4.9-1.1s-.2.8.2.9a8.8,8.8,0,0,0,1.6.2c.3.1.9,0,.9.4s-.5.5-.9.5-.4,0-.4.3a10.1,10.1,0,0,1,1.8.9C222.9,52.1,223.8,52.6,222,53Zm28.6,26.8c-.1,1.3,0,2.4,1.4,2.9s.4.4.2.7a6,6,0,0,1-.8.8c-.6.7-.6,1.2.1,1.8a3.7,3.7,0,0,0,2.8.9,13.3,13.3,0,0,1,3.4-.5,3.2,3.2,0,0,0,2.4-1.3c.3-.4.4-.5-.2-.6a1.5,1.5,0,0,1-.4-2.4.7.7,0,0,0,.2-1.1c-.8-1.3-4-2.8-5.4-2.5s-1.1.4-1,.8-.8.8-1.4.8Zm-167,86.5c-.1-.5-.4-.9-.8-.9a2.8,2.8,0,0,1-2.8-1.5c-.2-.3-.9-.5-.7-1s.7,0,1.1-.2.6.2.7-.2-.1-.5-.3-.7a2.3,2.3,0,0,0-3.4.5.6.6,0,0,0-.1.4c.4.7.3,1.6,1.3,2s.7.1.5.6a.9.9,0,0,1-1.1.5,1.4,1.4,0,0,1-.9-.9c-.3-.8-.6-1.7-1-2.6s-.2-.7.3-.8.6-.1.4-.5-.4-.6-.7-.4-1.5,0-2.2-.2-1.6.1-1.7,1.2a16.2,16.2,0,0,1,0,2.2,2.7,2.7,0,0,0,1.2,2.9,13.8,13.8,0,0,1,2.7,1.4c1.1.8,3.7.4,4.6-.5A3.3,3.3,0,0,1,83.6,166.3Zm3.7,7.7.7.5c.7.2,1.9,1.7,1.6,2.1s-1.3.2-2,.3l-.5-.2c-1.1,0-2.3-.8-3.3.3,1.6,1.3,3.5.7,5.3.8s2.5-.1,3.4.9a.5.5,0,0,0,.8.1c.8-.9,1.7-1.6,3.1-1h.4a5,5,0,0,1,3.8-.2c.9.1,1.8.2,2.3-.8s-.4-.3-.6-.4a22.2,22.2,0,0,1-4.8-2,6.4,6.4,0,0,0-2.8-.7,23.5,23.5,0,0,1-5.3-.2A2.1,2.1,0,0,0,87.3,174Zm244-100.5-1-1.1a38.5,38.5,0,0,1-5.6-5.1c-.7-.9-1.2-1.2-2-.4s-1.8,0-.9,1.3-.2.2-.4.2l-1.2.6.7.7c-.3.3-.9-.1-.9.4s.3.8.7,1l.7.2c1.7.5,3.3,1.1,5,1.5A24.1,24.1,0,0,0,331.3,73.5ZM299.6,121a2.6,2.6,0,0,1-.3-1.7,3.2,3.2,0,0,0-1.2-2.5c-.2-.2-.4-.4-.7-.2s-1.6.5-2.2,1.2l.2.3a5.7,5.7,0,0,1,1.3,3.3c.1.5.6,1.1,1.1.9S299.4,122,299.6,121Zm8.3,3.8c-.7,0-1.3-.2-1.4.5s.4.8.8,1a21,21,0,0,1,4.1,2.4.8.8,0,0,0,.9.1.5.5,0,0,0,.1-.8,5.3,5.3,0,0,1-.4-2.5.5.5,0,0,0-.5-.5A8.5,8.5,0,0,1,307.9,124.8Zm-233,32.4c-.7,0-1.2.1-1.4.5a1.1,1.1,0,0,0,.2,1.2c.4.5,1.1.3,1.5.1a1.7,1.7,0,0,1,2,.7c.3.3.5.7,1,.5a3.2,3.2,0,0,0,1.1-1.2c.1-.3-.4-.7-.8-.8A14,14,0,0,0,74.9,157.2ZM121,96.7h5.1a4.9,4.9,0,0,0,1.9-.7c.2,0,.4-.2.3-.4s-.3-.2-.4-.2h-3.6A5.4,5.4,0,0,0,121,96.7ZM81.9,95c1.4.3,2-1.1,3.1-1.6s.1-.4-.2-.5a12.5,12.5,0,0,1-2.6-.7c-.3-.1-.8.3-.5.6s.1.6-.2.7a1.2,1.2,0,0,0-.8,1.2C80.9,95.2,81.5,95,81.9,95Zm0-14.9c-1.8-.2-3.5-.4-5,.8s-.7.2-.6.7a.9.9,0,0,0,.9.5C79.1,82.1,80.5,81.1,81.9,80.1Zm-3.5,97.8a6.4,6.4,0,0,0-4.4-1.3c-.3.1-.8-.1-.9.4s.3.6.7.8S76.9,178.1,78.4,177.9Zm-58.5-62H16.8c-.3,0-.6.1-.4.5s.9,1.8,1.8,2.3.3.5.7.3a.8.8,0,0,0,.3-.9A2.1,2.1,0,0,1,19.9,115.9ZM307.4,53.7a6.1,6.1,0,0,0-3.2-1.6c-.4-.1-.5.7-.9.2s-1.5-.4-2.3-.1C302.8,54.3,305.3,53,307.4,53.7ZM127,102.5l-2.6.7a3,3,0,0,1-2.6-.2c-.3-.2-.6.3-.7.5s0,.5.2.6S126,104.3,127,102.5Zm-15.8,74.9h-4.5c-.7-.1-.6.4-.6.8s.1.7.5.6a6.7,6.7,0,0,1,2.8-.2A1.9,1.9,0,0,0,111.2,177.4Zm186.4-63c0-.9-.1-1.6-1-1.6a1.1,1.1,0,0,0-1.2,1.2c.1.8.8,2,1.4,1.9S297.5,114.9,297.6,114.4ZM85.7,82.3c.7,0,1-.8,1.5-1a.8.8,0,1,0-.8-1.3c-.5.3-1,.4-1.3.9s-.8.5-.5.8S85.2,82.4,85.7,82.3Zm4.8,87.3,1.8,1.2.6.2c.3-.4.8-.9.8-1.3s-.6-.7-1.1-.7A2.1,2.1,0,0,0,90.5,169.6Zm35,27.9c.1-.8-.3-1-1-.9s-.7.9-.8,1.4.4.4.8.5S125.6,198.3,125.5,197.5Zm204-61.2c-.7-1-1.9-1.3-2.9-1.9s-.5,0-.6.1.1.5.3.6S328.1,136.7,329.5,136.3ZM312.6,54l3.3.5c.4,0,.4-.3.4-.6s0-.7-.3-.6S313.8,53.2,312.6,54Zm-.1,1.7c-.2-.4-1.1,0-.8-.9s-.7-.3-1.1-.3-.6,0-.7.3.4.3.6.4-.1.2-.1.3.4,1.1,1.1.7Zm24.8,82.8c-.3,0-.9-.2-.9.4a1.2,1.2,0,0,0,1.2,1.2c.4.1.9-.1.8-.7S338,138.3,337.3,138.5ZM255.5,71.7c-.5.3-1.5.3-1.5.8s-.6,1.5.3,2-.2-1,.6-1.2S255.6,72.5,255.5,71.7Zm-132.6.1c.9,0,1.4-.4,1.4-1s-.4-.5-.7-.5a1.3,1.3,0,0,0-1.4,1.1C122.1,72,122.7,71.7,122.9,71.8ZM90.5,77.1c.6,1.1,1.9,1.2,2.4.2s-.1-.4-.4-.5A6.9,6.9,0,0,0,90.5,77.1Zm193.3,42.2c-.4,0-.9.1-.8.6s.6.7,1.1.8a.6.6,0,0,0,.7-.7A.8.8,0,0,0,283.8,119.3Zm96.6,76.4c.8,1.4,1.2,1.4,2.6.2C382.1,195.9,381.3,195.4,380.4,195.7ZM298.8,50.3a2.9,2.9,0,0,0,2.3,1.5.4.4,0,0,0,.6-.2.5.5,0,0,0-.3-.5ZM85.8,168.6c.5-.4,1.3-.8,1.1-1.2s-1-.4-1.6-.3S85.3,168.2,85.8,168.6ZM306.5,54.5c1.7,1.4,1.8,1.4,2.6.6A4.6,4.6,0,0,0,306.5,54.5ZM69.6,165.6c.2-.1.7.2.7-.4s-.4-.6-.8-.6-.8.1-.8.5S69.1,165.6,69.6,165.6Zm46-89.4c-1.4-.2-1.9.1-2,1.2A5.3,5.3,0,0,0,115.6,76.2Zm193,139.2c.1-.3-.2-.4-.3-.3a2.5,2.5,0,0,0-1.1,1.2c-.1.2.1.5.3.4S308.3,215.9,308.6,215.4ZM95.6,76l-2.4.2C94.2,77.2,94.8,76.7,95.6,76Zm-8.9,95.3h.5c.4-.1.9.1,1.2-.3s0-.2-.1-.3-.8-.1-1.3.1ZM223.6,22.4c0-.5,1-.4.6-1s-.2-.3-.4-.2S223.4,22,223.6,22.4ZM82.6,86.7a2.7,2.7,0,0,0,1.6-.8C83.3,85.6,83,86.1,82.6,86.7Z"/><path class="cls-2" d="M225.7,30.2c.2.3.2.5-.3.5h-1.8c.1-.6,0-1.5,1.2-1.2s.9-.2,1.3-.1.5.2.7-.1,0-.4-.2-.6l-.9-.4c-.3-.2-.8-.2-.8-.8s.8-.6,1-.5,1.4-.7,2-1,1.9-.5,2.8-.9a3.8,3.8,0,0,0-1.8-2.8c-.3-.2-1-.6-.5-1.1a1.1,1.1,0,0,1,1.5.2,1,1,0,0,0,1.3.3,4.4,4.4,0,0,1,2.8.2l4.5.9c.3.1.7,0,.5.8s.6,1.9,1.5,2.3.8.8.5,1.5a.9.9,0,0,1-1.2.5c-.7-.4-1.6-.4-2.3-.8s-1.6.1-2.3.7-.1.2,0,.4.1.5-.5.7.8.3,1.1.6.6.2.5.5-.4.4-.6.4a2.5,2.5,0,0,1-2.6-.4c-.2-.3-.5-.7-1-.4s-1.8,1.1-3.2-.2l-.4-.3c0,.8.6,1.3.5,2.1a4.5,4.5,0,0,1-.9,2c.4-2-.9-2.6-2.2-3.2s-.5-.3-.8-.4S225.5,30,225.7,30.2Z"/><path class="cls-2" d="M84.9,172.8a7.9,7.9,0,0,1-5,.8,9.4,9.4,0,0,0-3.7.2H74.6l1.6-1.4a1.7,1.7,0,0,0-1.7-.4,4.6,4.6,0,0,1-4.5-1.7,4.3,4.3,0,0,0-3.8-1.3H66c-.6,1.9-2.1.5-3.1.9s-1-.1-1.5.2a.4.4,0,0,1-.5-.2c-.5-1.1-1.5-.9-2.5-.9s-.6.3-.8-.2a1.5,1.5,0,0,1,.2-.9,3.4,3.4,0,0,1,2.2-1c3.9-.5,7.9-1.2,11.8.5a13.6,13.6,0,0,0,2.1.2,7.1,7.1,0,0,1,3,1.8,3.1,3.1,0,0,0,1.5.8C80.7,170.7,82.6,172.2,84.9,172.8Z"/><path class="cls-2" d="M222,53c1.8-.4.9-.9.4-1.4a10.1,10.1,0,0,0-1.8-.9c0-.3.2-.3.4-.3s.9.1.9-.5-.6-.3-.9-.4a8.8,8.8,0,0,1-1.6-.2c-.4-.1-.9-.3-.2-.9s3.6-.8,4.9,1.1c.2.2.2.6.5.5s.8.1.8-.5-.1-.7.4-.4,3.2.4,4.6,1.1h.4c1.9-.9,3,.5,4.2,1.5s1,.7,1.5,1.1,1.1.9.7,1.6-1.1,1.4-1.8,1.2a6.6,6.6,0,0,0-2.8.1,9.9,9.9,0,0,1-6.9-1.4A38.5,38.5,0,0,0,222,53Z"/><path class="cls-2" d="M83.6,166.3a3.3,3.3,0,0,0-2.9,1.3c-.9.9-3.5,1.3-4.6.5a13.8,13.8,0,0,0-2.7-1.4,2.7,2.7,0,0,1-1.2-2.9,16.2,16.2,0,0,0,0-2.2c.1-1.1.6-1.5,1.7-1.2s1.4.6,2.2.2.6.1.7.4-.1.5-.4.5-.4.6-.3.8.7,1.8,1,2.6a1.4,1.4,0,0,0,.9.9.9.9,0,0,0,1.1-.5c.2-.5-.3-.5-.5-.6s-.9-1.3-1.3-2a.6.6,0,0,1,.1-.4,2.3,2.3,0,0,1,3.4-.5c.2.2.4.4.3.7s-.5.1-.7.2-.9-.4-1.1.2.5.7.7,1a2.8,2.8,0,0,0,2.8,1.5C83.2,165.4,83.5,165.8,83.6,166.3Z"/><path class="cls-2" d="M87.3,174a2.1,2.1,0,0,1,2.1-.5,23.5,23.5,0,0,0,5.3.2,6.4,6.4,0,0,1,2.8.7,22.2,22.2,0,0,0,4.8,2c.2.1.5.1.6.4s-1.4.9-2.3.8a5,5,0,0,0-3.8.2h-.4c-1.4-.6-2.3.1-3.1,1a.5.5,0,0,1-.8-.1c-.9-1-2.1-.9-3.4-.9s-3.7.5-5.3-.8c1-1.1,2.2-.3,3.3-.3l.5.2c.7-.1,1.5.3,2-.3s-.9-1.9-1.6-2.1Z"/><path class="cls-2" d="M331.3,73.5a24.1,24.1,0,0,1-4.9-.7c-1.7-.4-3.3-1-5-1.5l-.7-.2c-.4-.2-.8-.5-.7-1s.6-.1.9-.4l-.7-.7,1.2-.6c.2,0,.5-.1.4-.2s.6-.9.9-1.3,1.3-.5,2,.4a38.5,38.5,0,0,0,5.6,5.1Z"/><path class="cls-2" d="M299.6,121c-.2,1-1.1,1.1-1.8,1.3s-1-.4-1.1-.9a5.7,5.7,0,0,0-1.3-3.3l-.2-.3c.6-.7,1.5-.7,2.2-1.2s.5,0,.7.2a3.2,3.2,0,0,1,1.2,2.5A2.6,2.6,0,0,0,299.6,121Z"/><path class="cls-2" d="M307.9,124.8a8.5,8.5,0,0,0,3.6.2.5.5,0,0,1,.5.5,5.3,5.3,0,0,0,.4,2.5.5.5,0,0,1-.1.8.8.8,0,0,1-.9-.1,21,21,0,0,0-4.1-2.4c-.4-.2-.9-.4-.8-1S307.2,124.8,307.9,124.8Z"/><path class="cls-2" d="M74.9,157.2a14,14,0,0,1,3.6,1c.4.1.9.5.8.8a3.2,3.2,0,0,1-1.1,1.2c-.5.2-.7-.2-1-.5a1.7,1.7,0,0,0-2-.7c-.4.2-1.1.4-1.5-.1a1.1,1.1,0,0,1-.2-1.2C73.7,157.3,74.2,157.2,74.9,157.2Z"/><path class="cls-2" d="M121,96.7a5.4,5.4,0,0,1,3.3-1.4h3.6c.1,0,.4-.1.4.2s-.1.4-.3.4a4.9,4.9,0,0,1-1.9.7Z"/><path class="cls-2" d="M81.9,95c-.4,0-1,.2-1.2-.3a1.2,1.2,0,0,1,.8-1.2c.3-.1,1-.2.2-.7s.2-.7.5-.6a12.5,12.5,0,0,0,2.6.7c.3.1.5.4.2.5S83.3,95.3,81.9,95Z"/><path class="cls-2" d="M81.9,80.1c-1.4,1-2.8,2-4.7,2a.9.9,0,0,1-.9-.5c-.1-.5.3-.5.6-.7S80.1,79.9,81.9,80.1Z"/><path class="cls-2" d="M78.4,177.9c-1.5.2-3.1.8-4.6-.1s-.8-.4-.7-.8.6-.3.9-.4A6.4,6.4,0,0,1,78.4,177.9Z"/><path class="cls-2" d="M19.9,115.9a2.1,2.1,0,0,0-.7,2.2.8.8,0,0,1-.3.9c-.4.2-.5-.2-.7-.3s-1.2-1.5-1.8-2.3.1-.5.4-.5Z"/><path class="cls-2" d="M307.4,53.7c-2.1-.7-4.6.6-6.4-1.5.8-.3,1.6-.6,2.3.1s.5-.3.9-.2A6.1,6.1,0,0,1,307.4,53.7Z"/><path class="cls-2" d="M127,102.5c-1,1.8-4.2,2.6-5.7,1.6s-.4-.3-.2-.6.4-.7.7-.5a3,3,0,0,0,2.6.2Z"/><path class="cls-2" d="M111.2,177.4a1.9,1.9,0,0,1-1.8,1.2,6.7,6.7,0,0,0-2.8.2c-.4.1-.5-.2-.5-.6s-.1-.9.6-.8Z"/><path class="cls-2" d="M297.6,114.4c-.1.5.2,1.3-.8,1.5s-1.3-1.1-1.4-1.9a1.1,1.1,0,0,1,1.2-1.2C297.5,112.8,297.6,113.5,297.6,114.4Z"/><path class="cls-2" d="M85.7,82.3c-.5.1-.8-.3-1.1-.6s.3-.5.5-.8.8-.6,1.3-.9a.8.8,0,1,1,.8,1.3C86.7,81.5,86.4,82.3,85.7,82.3Z"/><path class="cls-2" d="M90.5,169.6a2.1,2.1,0,0,1,2.1-.6c.5,0,1.2.1,1.1.7s-.5.9-.8,1.3l-.6-.2Z"/><path class="cls-2" d="M125.5,197.5c.1.8-.3,1.1-1,1s-1,.1-.8-.5-.3-1.4.8-1.4S125.6,196.7,125.5,197.5Z"/><path class="cls-2" d="M329.5,136.3c-1.4.4-2.2-.7-3.2-1.2s-.5-.3-.3-.6.5-.2.6-.1S328.8,135.3,329.5,136.3Z"/><path class="cls-2" d="M312.6,54c1.2-.8,2.4-.2,3.4-.7s.3.4.3.6,0,.6-.4.6Z"/><path class="cls-2" d="M312.5,55.7l-1,.5c-.7.4-.9-.1-1.1-.7s.4-.1.1-.3-.8.2-.6-.4.4-.3.7-.3,1.1,0,1.1.3S312.3,55.3,312.5,55.7Z"/><path class="cls-2" d="M337.3,138.5c.7-.2,1,.3,1.1.9s-.4.8-.8.7a1.2,1.2,0,0,1-1.2-1.2C336.4,138.3,337,138.5,337.3,138.5Z"/><path class="cls-2" d="M255.5,71.7c.1.8.4,1.5-.6,1.6s-.4.8-.6,1.2-.1-1.4-.3-2S255,72,255.5,71.7Z"/><path class="cls-2" d="M122.9,71.8c-.2-.1-.8.2-.7-.4a1.3,1.3,0,0,1,1.4-1.1c.3,0,.7-.1.7.5S123.8,71.8,122.9,71.8Z"/><path class="cls-2" d="M90.5,77.1a6.9,6.9,0,0,1,2-.3c.3.1.6.1.4.5S91.1,78.2,90.5,77.1Z"/><path class="cls-2" d="M283.8,119.3a.8.8,0,0,1,1,.7.6.6,0,0,1-.7.7c-.5-.1-1.1-.2-1.1-.8S283.4,119.3,283.8,119.3Z"/><path class="cls-2" d="M380.4,195.7c.9-.3,1.7.2,2.6.2C381.6,197.1,381.2,197.1,380.4,195.7Z"/><path class="cls-2" d="M298.8,50.3l2.6.8a.5.5,0,0,1,.3.5.4.4,0,0,1-.6.2A2.9,2.9,0,0,1,298.8,50.3Z"/><path class="cls-2" d="M85.8,168.6c-.5-.4-.3-1-.5-1.5s1.5-.2,1.6.3S86.3,168.2,85.8,168.6Z"/><path class="cls-2" d="M306.5,54.5a4.6,4.6,0,0,1,2.6.6C308.3,55.9,308.2,55.9,306.5,54.5Z"/><path class="cls-2" d="M69.6,165.6c-.5,0-.9,0-.9-.5s.5-.5.8-.5.8.1.8.6S69.8,165.5,69.6,165.6Z"/><path class="cls-2" d="M115.6,76.2a5.3,5.3,0,0,1-2,1.2C113.7,76.3,114.2,76,115.6,76.2Z"/><path class="cls-2" d="M308.6,215.4c-.3.5-.4,1.1-1.1,1.3s-.4-.2-.3-.4a2.5,2.5,0,0,1,1.1-1.2C308.4,215,308.7,215.1,308.6,215.4Z"/><path class="cls-2" d="M95.6,76c-.8.7-1.4,1.2-2.4.2Z"/><path class="cls-2" d="M86.7,171.3l.3-.4c.5-.2.9-.5,1.3-.1s.2.2.1.3-.8.2-1.2.3Z"/><path class="cls-2" d="M261.7,72.5l-.3-.2c-.3-.1-.6-.1-.5-.6s.3-.2.5-.2a.9.9,0,0,1,.9.7c0,.4-.4.2-.7.3Z"/><path class="cls-2" d="M219.7,14.7v-.2c-.2-.3-.9-.3-.7-.8l.2-.2c.4.3,1.1.3,1.2.9s-.5,0-.7.3Z"/><path class="cls-2" d="M223.6,22.4c-.2-.4-.3-.9.2-1.2s.4,0,.4.2S223.6,21.9,223.6,22.4Z"/><path class="cls-2" d="M82.6,86.7c.4-.6.7-1.1,1.6-.8A2.7,2.7,0,0,1,82.6,86.7Z"/><path class="cls-1" d="M57.9,73.9a4.2,4.2,0,0,1-1.4,2.4c-.4.5-1,.9-1,1.6s.8-.4,1.4-.5-1.4,1.9-2.2,2.7a13.7,13.7,0,0,1-2,1.3c-.5.3-.4,1-.8,1.3s-2.1,2.2-3.1,3.3h-.1c-.3.2-1-.4-.8.3s.7.2,1.1.1.9-.4,1.5,0,.8-.5,1.3-.7a.6.6,0,0,1-.3.8c-1.2.6-2,1.9-3.6,2s-1.2,1-1.9,1.4-.4.3-.7-.2-2-.5-3-.5-3.7,1.1-5.5,1.5a10.9,10.9,0,0,1-2.5.4c-1.1-.2-1.7.5-2.3,1.2a78.7,78.7,0,0,1-5.3,6.2c-1.6,1.9-3.2,3.8-4.6,5.8l-.6.6h-.2a60.3,60.3,0,0,1,3.8-7.1,165.5,165.5,0,0,1,9.7-15.4c2.8-4.1,5.8-8,9-11.9s6.4-7.4,9.8-11,7.9-7.8,12-11.5l3.3-2.9c.3.4.1.6,0,.9s0,1.7,1.3,1.4.4-.2.6.1,2.4.8,3.7.5l4.3-.8a9.4,9.4,0,0,0,2.2-.7c.3.5.3,1-.6,1s-.9.1-1,.3.5.6.7,1.1-2.5.6-3.7,1,.4-.4.6-.6v-.2a2.7,2.7,0,0,0-2.6-.1c-.7.3-.4.8-.4,1.3s.7-.3,1.1-.1A13.1,13.1,0,0,1,68.8,52c.9-.9,2.6-.8,2.9-2.5-.7-.1-1.1.6-1.7.6s0-1.1-1.2-.7a2.6,2.6,0,0,0-1.2.5c-.5.4-1,.9-.8,1.6s.9.5,1.7.7c-1.6.9-1.9,2.7-3.3,3.6H65c-.1-1,.8-1.5,1.2-2.2s.4-.5.2-.9l-.3-.7c-.2.2-.6.2-.7.4s-1.8,3.2-1.4,5.1a.9.9,0,0,1-.3.9,16.9,16.9,0,0,0-1.2,3.6c-.4,1.2-1,2.5-1.5,3.7L57,74c.4.3.5-.2.7-.2Zm8.4-24.3c.7-.2,1.2-.5,1.1-1.4S66.6,49.1,66.3,49.6Z"/><path class="cls-1" d="M132.3,28.4a2,2,0,0,1,1.1-1.3,26.4,26.4,0,0,0,3.7-2c.2-.1.6-.8,1-.1s.2,1.5-.4,1.6a19.3,19.3,0,0,0-5.2,2Z"/><path class="cls-1" d="M73.6,41.3c1-.8,1.8-1.3,3.1-.2s2,.4,3.1.5l-.9,1C77.3,41.4,75.2,42.6,73.6,41.3Z"/><path class="cls-1" d="M63.8,60.6c.5-1,1.6-1,1.8-2.1s.8-.1,1.4.2c-1.6,1.1-1.8,2.9-2.3,4.6a2,2,0,0,1,.2-1.9C65.1,60.4,64.7,60.4,63.8,60.6Z"/><path class="cls-1" d="M80.8,41.7a6.5,6.5,0,0,1,3.9-.1l-2,.8C81.8,42.9,81.3,42.4,80.8,41.7Z"/><path class="cls-1" d="M86.9,41.9c1.8-.2,3.4-.9,5.4-.5C90.5,42.5,88.6,41.7,86.9,41.9Z"/><path class="cls-1" d="M218.5,38.8c-1.2.2-2.2-.5-3.3-.7,1.4-1.1,1.5-1.1,3.3.7Z"/><path class="cls-1" d="M62.6,65.8c0,1.1-1,1.8-.7,2.8s-.4.4-.6.4-.5-.2-.4-.6a.4.4,0,0,1,.4-.4c.3,0,.1-.2.1-.4A5.2,5.2,0,0,1,62.6,65.8Z"/><path class="cls-1" d="M158.1,40.4c-.7.6-1.6.5-2.3.8s-.5-.6-.7-1-.1-.4.2-.2A3.9,3.9,0,0,0,158.1,40.4Z"/><path class="cls-1" d="M27.4,157.7a4.2,4.2,0,0,1,1.1-3.3A10.7,10.7,0,0,1,27.4,157.7Z"/><path class="cls-1" d="M74.8,73h1c.3,0,.7-.2.7.3a.5.5,0,0,1-.6.6c-.3,0-.7.2-.4-.5S75.1,73.4,74.8,73Z"/><path class="cls-1" d="M81.5,58.5l-.2.5a.5.5,0,0,1-.8.2.5.5,0,0,1-.3-.3c-.1-.4.4-.4.6-.5h.5Z"/><path class="cls-1" d="M63.2,61.7c0-.6-.2-.9.2-1h.3Z"/><path class="cls-1" d="M139.5,24a3.3,3.3,0,0,1-1.3.7c.3-.6.8-.6,1.1-.9Z"/><path class="cls-1" d="M120.3,101.1l-.9.5c0-.6.5-.5.7-.7Z"/><path class="cls-1" d="M21.5,105c-.2.3-.1.6-.5.8a.9.9,0,0,1,.3-.9Z"/><path class="cls-1" d="M150.9,91.6v-.2l.3-.3c0,.1.1.2.1.3S151.1,91.7,150.9,91.6Z"/><path class="cls-1" d="M108.3,104.1h-.2l.2-.2c.2-.1.1.1.1.2Z"/><path class="cls-1" d="M143.3,88h.1c.1,0,.3-.1.2.1s-.1.1-.1.2Z"/><path class="cls-1" d="M141.6,86.1c.1-.2.2-.2.4-.1l-.2.3Z"/><path class="cls-1" d="M52.3,85.5l-.2.2c-.1-.1-.2-.2-.1-.3h.2C52.2,85.4,52.2,85.5,52.3,85.5Z"/><path class="cls-1" d="M57.1,76.9h.2c0,.1,0,.2-.1.2s-.2.1-.2-.1Z"/><path class="cls-1" d="M57.7,73.8c.1-.1.2-.4.3-.2a.2.2,0,0,1-.1.3Z"/><path class="cls-1" d="M81.3,58.3c.1-.2.3-.3.5-.1l-.3.3Z"/><path class="cls-1" d="M65.2,55.8l-.3.3c-.1-.2-.1-.3.1-.4Z"/><path class="cls-1" d="M305.7,74.5a6.3,6.3,0,0,1,3.3,1.2c1.5,1.2,3.2,1.4,4.9,2.1a5.1,5.1,0,0,1,2.4,1.8c-.8.2-1.1-.4-1.5-.6a6.3,6.3,0,0,0-3-1c-1.1-.1-.9.7-.9,1.1a.9.9,0,0,0,1.1,1c.9-.3,1.4.3,1.8.8a3.1,3.1,0,0,1,.9,2.1l-1.8-1.8c-.2-.2-.4-.6-.9-.3s-.5.7-.5,1.1a17.2,17.2,0,0,0,1.1,2.9c.1.5-.1.7-.4,1.1s-1.7.3-2.4-.3a2.1,2.1,0,0,0-2-.2l-3.2.9a2,2,0,0,1-2.4-1.3c-.2-.6-.7-.4-1-.3l-2.1.6a1.9,1.9,0,0,1-1,.3c-.3,0-.6.2-.7,0s-2.5-.3-2.8-1.8c1.5,0,1.5,0,1.2-1.4v-.2l.8.7c.7.5.7.5-.1.9,1.9,1.2,2.3.9,2.5-1.7.8.2,1.4,1,2.3,1s1.5.6,1-.8.4-.6.8-.6,1.3.3,2-.3.8-.5.3-1-.8-2.4-1.3-3.5.2-.4.4-.5,1.6-.9,1.1-2.1Zm.9,4.5c.5.6.2,1.6,1.1,1.6s.2-.8.2-1.1S307.2,79.1,306.6,79Z"/><path class="cls-1" d="M361.1,184.2c-.5-.1-1-.2-1.1.3s.2.6.4.8.6-.2,1.2-.4c-.2,3,1,5.7.8,8.7-.9-1.5-1.8-3-2.6-4.5a8.6,8.6,0,0,1-.7-1l-.2-.3c1.5-1-.2-1.5-.3-2.3a2.8,2.8,0,0,0-.5,1.7c-.8-2.2-.8-4.6-2.2-6.4s-2.1-5.2-3.1-7.9a7.8,7.8,0,0,0-1.8-3.2,7.2,7.2,0,0,1-1.1-1.9c-1.2-3.5-3.5-6.5-5-9.9-.1-.3-.6-.6-.2-.9s.9,0,1.2.4,1.8,2.7,2.6,4.2,1.8,2.8,2.5,4.3,1.2,1.2,1.6,2a16.9,16.9,0,0,1,2,4.6,8.8,8.8,0,0,0,2.2,4,6.6,6.6,0,0,1,1.4,2A38.3,38.3,0,0,0,361.1,184.2Z"/><path class="cls-1" d="M305.4,74.1a11.5,11.5,0,0,0-2.6-1.9,5.8,5.8,0,0,1-2.3-3.6,1.3,1.3,0,0,1,1.1-1.6c1.1-.4,1-1.1.6-1.8a2.1,2.1,0,0,1-.5-1.5,9,9,0,0,1,2.7,2,1.3,1.3,0,0,1,.4,1.5c-.1.6-.7.7-1.4.4.9,2.4,3,3.8,3.6,6.1-.5.1-1.1-.3-1.5.2Z"/><path class="cls-1" d="M317.9,75.5c-.6,0-1.2.7-1.7-.2s-.5-.3,0-.4.1-.6.5-.3S317.6,75,317.9,75.5Z"/><path class="cls-1" d="M315.4,73.5a.8.8,0,0,1,1,.5c0,.1,0,.2-.1.2S315.7,73.8,315.4,73.5Z"/><path class="cls-1" d="M305.7,74.4l-.3-.3v-.2a.4.4,0,0,1,.2.6Z"/><path class="cls-1" d="M363.1,194.9c-.2-.1-.3-.2-.1-.4l.3.2Z"/><path class="cls-1" d="M314.5,72.8a.5.5,0,0,1,.6.1H315c-.2.1-.3-.1-.4-.2Z"/><path class="cls-1" d="M294.5,83.5h-.2l-.2-.2h.2Z"/><path class="cls-1" d="M225.7,30.2c-.2-.2-.6-.1-.6-.6s.6.1.8.4Z"/><path class="cls-2" d="M66.3,49.6c.3-.5.3-1.2,1.1-1.4S67,49.4,66.3,49.6Z"/><path class="cls-2" d="M306.6,79c.6.1,1.2-.4,1.3.5s.3,1.1-.2,1.1S307.1,79.6,306.6,79Z"/></svg>