<?xml version="1.0" encoding="utf-8"?>
<!-- Generator: Adobe Illustrator 23.0.1, SVG Export Plug-In . SVG Version: 6.00 Build 0)  -->
<svg version="1.1" id="Layer_1" xmlns="http://www.w3.org/2000/svg" xmlns:xlink="http://www.w3.org/1999/xlink" x="0px" y="0px"
	 viewBox="0 0 374 163.7" style="enable-background:new 0 0 374 163.7;" xml:space="preserve">
<style type="text/css">
	.st0{fill:#FFFFFF;}
	.st1{fill:none;}
	.st2{display:none;}
</style>
<g>
	<polygon class="st0" points="4,114.6 4,4 355.1,4 355.1,114.6 179.5,159.6 	"/>
	<path d="M351.1,8v103.5l-171.5,44L8,111.5V8H351.1 M359.1,0H0v117.7l179.5,46l179.5-46V0L359.1,0z"/>
</g>
<g>
	<path d="M59.4,66.3v8H28.9V27.6h30.5v8H38.8V47h19.4v7.4H38.8v11.9H59.4z"/>
	<path d="M114.9,27.6L100.2,51l14.5,23.3h-11.3l-9.6-16.1h-0.4l-9.6,16.1H73.1l14.3-23.5L73.2,27.6h11.7l9.3,16.4h0.4l9.2-16.4
		L114.9,27.6L114.9,27.6z"/>
	<path d="M127.7,54v-5.8c0-6.7,1.8-11.9,5.4-15.7c3.6-3.8,8.6-5.7,14.9-5.7c6.3,0,11.3,1.9,14.9,5.8s5.4,9.1,5.4,15.7V54
		c0,6.6-1.8,11.8-5.4,15.5c-3.6,3.8-8.6,5.6-14.9,5.6c-6.3,0-11.3-1.9-14.9-5.6C129.5,65.8,127.7,60.6,127.7,54z M137.8,48.1v5.9
		c0,4.2,0.9,7.4,2.8,9.6c1.8,2.2,4.3,3.3,7.4,3.3c3.1,0,5.6-1.1,7.4-3.3c1.8-2.2,2.8-5.4,2.8-9.6v-5.9c0-4.2-0.9-7.5-2.8-9.8
		c-1.9-2.3-4.3-3.4-7.4-3.4s-5.5,1.1-7.4,3.4C138.7,40.6,137.8,43.9,137.8,48.1z"/>
	<path d="M186.5,27.6H204c3.7,0,6.9,0.6,9.6,1.7c2.7,1.1,4.9,2.7,6.5,4.8c1.6,2.1,2.8,4.5,3.6,7.3c0.8,2.8,1.2,5.9,1.2,9.5
		c0,2.8-0.2,5.4-0.7,7.7c-0.5,2.3-1.2,4.5-2.3,6.5c-1.1,2-2.4,3.6-4,5c-1.6,1.4-3.6,2.4-5.9,3.2c-2.3,0.8-5,1.1-8,1.1h-17.5
		L186.5,27.6L186.5,27.6z M196.4,35.6v30.7h6.1c4,0,7-1.2,9.1-3.5c2.1-2.3,3.1-6.3,3.1-11.8c0-2.3-0.2-4.3-0.6-6.1s-1-3.4-1.9-4.8
		c-0.9-1.4-2.2-2.5-3.8-3.3c-1.6-0.8-3.6-1.2-5.9-1.2H196.4z"/>
	<path d="M252,27.6v29.5c0,3.1,0.8,5.5,2.5,7.2c1.7,1.7,3.9,2.5,6.7,2.5c2.8,0,5-0.9,6.7-2.5c1.7-1.7,2.5-4.1,2.5-7.2V27.6h9.9v30.5
		c0,5.2-1.7,9.3-5.2,12.4c-3.5,3.1-8.1,4.7-13.9,4.7c-5.8,0-10.4-1.6-13.9-4.7c-3.5-3.1-5.2-7.3-5.2-12.4V27.6H252z"/>
	<path d="M297.1,60.9h9.5c0.1,1.8,1,3.4,2.6,4.6c1.6,1.3,3.8,1.9,6.6,1.9c2.7,0,4.8-0.6,6.2-1.7c1.5-1.1,2.2-2.6,2.2-4.4
		c0-1.6-0.6-2.8-1.7-3.6c-1.1-0.9-2.9-1.6-5.4-2.1l-7-1.6c-1.7-0.4-3.3-0.9-4.7-1.5c-1.4-0.6-2.6-1.5-3.8-2.5c-1.1-1-2-2.3-2.6-3.8
		c-0.6-1.5-0.9-3.2-0.9-5.2c0-3,0.8-5.5,2.4-7.7c1.6-2.2,3.7-3.8,6.3-4.9c2.6-1.1,5.6-1.6,9-1.6c5.2,0,9.4,1.3,12.6,3.9
		s4.9,6,4.9,10.1h-9.2c-0.1-1.8-0.9-3.3-2.4-4.5c-1.4-1.2-3.4-1.8-6-1.8c-2.4,0-4.3,0.5-5.7,1.6c-1.4,1-2.1,2.5-2.1,4.3
		c0,2.7,2.1,4.5,6.4,5.4l7.1,1.6c1.8,0.4,3.5,0.9,4.9,1.5c1.4,0.6,2.7,1.4,3.9,2.5c1.2,1,2.2,2.3,2.8,3.9c0.6,1.6,1,3.4,1,5.4
		c0,4.6-1.7,8.2-5,10.8c-3.3,2.6-7.9,4-13.7,4c-2.6,0-5-0.3-7.1-0.9c-2.1-0.6-3.9-1.3-5.2-2.3s-2.5-2-3.4-3.3
		c-0.9-1.3-1.6-2.5-1.9-3.8C297.3,63.6,297.1,62.3,297.1,60.9z"/>
</g>
<g>
	<path d="M85.6,114l-2.7-0.4l2.3-15.8l2.4,0.4l5.6,12.1l0.1,0L95,99.2l2.7,0.4l-2.3,15.8l-2.4-0.4l-5.7-12.2l-0.1,0L85.6,114z"/>
	<path d="M107.5,116.9l-2.8-0.3l1.8-15.9l2.8,0.3L107.5,116.9z"/>
	<path d="M119.5,118.1l-2.7-0.2l1.3-15.9l2.4,0.2l6.4,11.8l0.1,0l0.9-11.2l2.7,0.2l-1.3,15.9l-2.4-0.2l-6.4-11.8l-0.1,0L119.5,118.1
		z"/>
	<path d="M149,117.7l-0.1,2.4l-10.1-0.5l0.8-16l10.1,0.5l-0.1,2.4l-7.3-0.4l-0.2,4.4l6.8,0.3l-0.1,2.2l-6.8-0.3l-0.2,4.6L149,117.7z
		"/>
	<path d="M163.6,120.5l-2.8-0.1l0.3-13.6l-4.6-0.1l0.1-2.4l12.1,0.3l-0.1,2.4l-4.7-0.1L163.6,120.5z"/>
	<path d="M183,120.7l-2.8,0l0-6.3l-5.4-9.7l3.2,0l3.6,6.9h0.1l3.6-6.9l3.1,0l-5.3,9.6L183,120.7z"/>
	<path d="M205.9,104.2l5.6-0.3c1.3-0.1,2.4,0.1,3.3,0.4c0.9,0.3,1.7,0.9,2.3,1.6c0.6,0.7,1,1.5,1.3,2.4c0.3,0.9,0.5,2,0.5,3.2
		c0,1,0,1.8-0.1,2.6c-0.1,0.8-0.3,1.5-0.7,2.2c-0.3,0.7-0.8,1.3-1.3,1.8c-0.5,0.5-1.2,0.9-2,1.2c-0.8,0.3-1.7,0.5-2.7,0.5l-5.6,0.3
		L205.9,104.2z M208.8,106.5l0.5,11.3l2.5-0.1c1.5-0.1,2.6-0.6,3.3-1.5c0.7-0.9,1-2.4,0.9-4.3c0-0.9-0.2-1.6-0.3-2.3
		c-0.2-0.7-0.5-1.2-0.8-1.7c-0.4-0.5-0.9-0.9-1.5-1.1c-0.6-0.2-1.3-0.3-2.2-0.3L208.8,106.5z"/>
	<path d="M228.9,119l-2.8,0.2l4.2-16.4l3.2-0.3l6.7,15.5l-3,0.2l-1.7-4.2l-5.5,0.4L228.9,119z M232,105.6l-0.1,0l-1.6,6.8l4.3-0.3
		L232,105.6z"/>
	<path d="M252.8,116.8l-2.8,0.3l-0.7-6.3l-6.4-9l3.1-0.4l4.3,6.4l0.1,0l2.8-7.2l3.1-0.3l-4.3,10.2L252.8,116.8z"/>
	<path d="M263.7,110.9l2.7-0.4c0.2,0.7,0.6,1.2,1.3,1.6c0.7,0.4,1.5,0.5,2.6,0.3c1-0.1,1.7-0.5,2.2-1c0.5-0.5,0.7-1.1,0.6-1.9
		c-0.1-0.6-0.4-1-0.8-1.3c-0.4-0.3-1.1-0.5-2-0.5l-2.6-0.2c-0.6,0-1.1-0.1-1.6-0.3c-0.5-0.2-0.9-0.4-1.4-0.7
		c-0.4-0.3-0.8-0.7-1.1-1.1c-0.3-0.5-0.5-1-0.6-1.6c-0.1-1,0-1.9,0.4-2.7s1-1.5,1.9-1.9s1.7-0.8,2.8-1c1.1-0.2,2.1-0.1,3,0.1
		c0.9,0.2,1.7,0.7,2.3,1.3c0.6,0.6,1,1.4,1.2,2.4l-2.7,0.4c-0.2-0.7-0.5-1.2-1.1-1.6c-0.6-0.4-1.4-0.5-2.3-0.3
		c-0.9,0.1-1.6,0.4-2.1,0.9c-0.5,0.5-0.7,1.1-0.6,1.8c0.2,1,1,1.6,2.5,1.7l2.6,0.2c0.7,0.1,1.2,0.2,1.8,0.3c0.5,0.1,1,0.4,1.4,0.6
		c0.4,0.3,0.8,0.7,1.1,1.1c0.3,0.5,0.5,1.1,0.6,1.7c0.2,1.5-0.2,2.8-1.2,3.8c-1,1-2.4,1.7-4.3,2c-0.9,0.1-1.6,0.1-2.4,0.1
		c-0.7-0.1-1.3-0.3-1.8-0.5c-0.5-0.2-0.9-0.6-1.3-0.9c-0.4-0.4-0.6-0.8-0.8-1.2C263.9,111.8,263.8,111.4,263.7,110.9z"/>
</g>
<path d="M75.5,104.9c0,1.8-1.5,3.3-3.3,3.3s-3.3-1.5-3.3-3.3c0-1.8,1.5-3.3,3.3-3.3S75.5,103,75.5,104.9z"/>
<polygon points="293.1,108.1 288.9,101.6 284.8,108.1 "/>
<g>
	<g>
		<path class="st0" d="M371.5,5.2c0,2.9-2.3,5.2-5.3,5.2c-2.9,0-5.3-2.3-5.3-5.2c0-2.8,2.3-5.1,5.3-5.1C369.2,0,371.5,2.3,371.5,5.2
			z M362.3,5.2c0,2.3,1.7,4.1,4,4.1c2.3,0,3.9-1.8,3.9-4.1c0-2.3-1.7-4.1-3.9-4.1C364,1.1,362.3,2.9,362.3,5.2z M365.4,7.9h-1.2V2.7
			c0.5-0.1,1.1-0.2,2-0.2c1,0,1.4,0.2,1.8,0.4c0.3,0.2,0.5,0.6,0.5,1.1c0,0.6-0.4,1-1.1,1.2v0.1c0.5,0.2,0.8,0.6,0.9,1.3
			c0.2,0.8,0.2,1.1,0.4,1.3h-1.3c-0.2-0.2-0.2-0.7-0.4-1.3c-0.1-0.6-0.4-0.8-1.1-0.8h-0.6V7.9z M365.5,5h0.6c0.7,0,1.2-0.2,1.2-0.8
			c0-0.5-0.3-0.8-1.1-0.8c-0.3,0-0.5,0-0.7,0.1V5z"/>
	</g>
</g>
<rect x="362" y="27" class="st1" width="34" height="24"/>
<g class="st2">
</g>
</svg>
