<?xml version="1.0" encoding="utf-8"?>
<!-- Generator: Adobe Illustrator 15.1.0, SVG Export Plug-In . SVG Version: 6.00 Build 0)  -->
<!DOCTYPE svg PUBLIC "-//W3C//DTD SVG 1.1//EN" "http://www.w3.org/Graphics/SVG/1.1/DTD/svg11.dtd">
<svg version="1.1" id="Layer_1" xmlns="http://www.w3.org/2000/svg" xmlns:xlink="http://www.w3.org/1999/xlink" x="0px" y="0px"
	 width="359.053px" height="163.688px" viewBox="396.474 228.699 359.053 163.688"
	 enable-background="new 396.474 228.699 359.053 163.688" xml:space="preserve">
<g>
	<polygon fill="#FFFFFF" points="400.474,343.282 400.474,232.699 751.526,232.699 751.526,343.282 575.999,388.258 	"/>
	<path d="M747.526,236.699v103.479l-171.527,43.95l-171.525-43.95V236.699H747.526 M755.526,228.699H396.474v117.688l179.525,46
		l179.527-46V228.699L755.526,228.699z"/>
</g>
<g>
	<path d="M455.876,294.988v8h-30.454v-46.656h30.454v8h-20.645v11.348h19.413v7.449h-19.413v11.859H455.876z"/>
	<path d="M511.356,256.332l-14.731,23.379l14.526,23.277h-11.279l-9.57-16.133h-0.443l-9.57,16.133H469.59l14.287-23.516
		l-14.219-23.141h11.654l9.264,16.441h0.443l9.194-16.441L511.356,256.332L511.356,256.332z"/>
	<path d="M524.215,282.719v-5.809c0-6.656,1.8-11.895,5.4-15.723c3.6-3.828,8.556-5.742,14.868-5.742
		c6.334,0,11.29,1.918,14.867,5.758c3.577,3.84,5.366,9.074,5.366,15.707v5.809c0,6.586-1.794,11.758-5.384,15.52
		c-3.588,3.758-8.562,5.637-14.919,5.637c-6.335,0-11.285-1.879-14.851-5.637C525.997,294.477,524.215,289.305,524.215,282.719z
		 M534.264,276.805v5.949c0,4.215,0.923,7.422,2.77,9.621c1.846,2.199,4.316,3.297,7.417,3.297c3.099,0,5.57-1.098,7.417-3.297
		c1.846-2.199,2.769-5.406,2.769-9.621v-5.949c0-4.238-0.929-7.496-2.785-9.773c-1.857-2.277-4.323-3.418-7.399-3.418
		s-5.543,1.145-7.4,3.434C535.194,269.337,534.264,272.59,534.264,276.805z"/>
	<path d="M582.977,256.332h17.467c3.69,0,6.893,0.555,9.604,1.656c2.711,1.109,4.888,2.703,6.528,4.785
		c1.641,2.086,2.848,4.512,3.623,7.281c0.773,2.77,1.162,5.922,1.162,9.453c0,2.801-0.239,5.371-0.719,7.707
		c-0.479,2.336-1.247,4.488-2.308,6.457c-1.059,1.973-2.393,3.641-3.998,5.008c-1.607,1.367-3.584,2.43-5.931,3.18
		c-2.349,0.754-5.002,1.129-7.964,1.129h-17.467v-46.656H582.977z M592.889,264.297v30.691h6.118c4.01,0,7.046-1.172,9.109-3.52
		c2.062-2.348,3.093-6.266,3.093-11.758c0-2.301-0.2-4.34-0.599-6.117c-0.399-1.777-1.048-3.383-1.947-4.82
		c-0.901-1.434-2.166-2.539-3.795-3.316c-1.629-0.773-3.583-1.16-5.861-1.16H592.889z"/>
	<path d="M648.506,256.332v29.465c0,3.098,0.825,5.492,2.479,7.176c1.651,1.688,3.891,2.531,6.717,2.531
		c2.779,0,5.008-0.852,6.682-2.547c1.676-1.699,2.514-4.086,2.514-7.16v-29.465h9.878v30.488c0,5.152-1.732,9.281-5.195,12.391
		c-3.464,3.109-8.09,4.664-13.877,4.664c-5.788,0-10.414-1.566-13.877-4.699c-3.464-3.133-5.195-7.273-5.195-12.422v-30.422H648.506
		z"/>
	<path d="M693.562,289.59h9.502c0.137,1.844,1.02,3.395,2.648,4.648c1.628,1.254,3.845,1.879,6.647,1.879
		c2.688,0,4.769-0.551,6.236-1.656c1.472-1.105,2.205-2.582,2.205-4.426c0-1.551-0.569-2.766-1.709-3.641
		c-1.14-0.879-2.938-1.59-5.399-2.137l-7.008-1.605c-1.731-0.367-3.293-0.875-4.683-1.523c-1.391-0.648-2.647-1.484-3.777-2.512
		c-1.127-1.023-2.005-2.301-2.631-3.828c-0.628-1.527-0.939-3.246-0.939-5.16c0-2.961,0.791-5.539,2.376-7.727
		c1.583-2.188,3.695-3.82,6.34-4.902c2.643-1.082,5.628-1.625,8.955-1.625c5.195,0,9.404,1.293,12.629,3.879
		s4.859,5.953,4.905,10.102h-9.229c-0.137-1.777-0.923-3.277-2.357-4.496c-1.436-1.219-3.431-1.828-5.981-1.828
		c-2.393,0-4.284,0.523-5.674,1.574c-1.391,1.047-2.085,2.473-2.085,4.27c0,2.715,2.119,4.504,6.356,5.367l7.075,1.574
		c1.847,0.387,3.476,0.895,4.889,1.52c1.411,0.629,2.729,1.449,3.946,2.461c1.22,1.016,2.154,2.301,2.804,3.863
		c0.649,1.559,0.975,3.367,0.975,5.418c0,4.578-1.67,8.191-5.008,10.832c-3.338,2.645-7.901,3.965-13.688,3.965
		c-2.644,0-5.023-0.285-7.144-0.852c-2.119-0.57-3.857-1.324-5.213-2.258c-1.356-0.934-2.489-2.035-3.4-3.297
		c-0.912-1.266-1.562-2.547-1.948-3.848C693.789,292.324,693.584,290.98,693.562,289.59z"/>
</g>
<g>
	<path d="M482.025,342.704l-2.679-0.394l2.319-15.826l2.423,0.354l5.647,12.138l0.093,0.015l1.623-11.073l2.667,0.391l-2.319,15.828
		l-2.399-0.353l-5.666-12.177l-0.082-0.012L482.025,342.704z"/>
	<path d="M503.939,345.596l-2.817-0.322l1.819-15.893l2.816,0.322L503.939,345.596z"/>
	<path d="M515.998,346.822l-2.698-0.227l1.342-15.939l2.44,0.205l6.383,11.769l0.093,0.009l0.939-11.152l2.686,0.227l-1.342,15.939
		l-2.417-0.203l-6.402-11.807l-0.082-0.007L515.998,346.822z"/>
	<path d="M545.449,346.4l-0.12,2.365l-10.089-0.513l0.81-15.976l10.089,0.512l-0.12,2.363l-7.268-0.368l-0.222,4.39l6.835,0.348
		l-0.114,2.234l-6.835-0.347l-0.234,4.623L545.449,346.4z"/>
	<path d="M560.108,349.214l-2.812-0.065l0.313-13.59l-4.64-0.106l0.056-2.401l12.103,0.279l-0.056,2.4l-4.651-0.106L560.108,349.214
		z"/>
	<path d="M579.51,349.37l-2.835,0.008l-0.018-6.315l-5.37-9.666l3.164-0.008l3.592,6.868h0.094l3.591-6.889l3.095-0.009
		l-5.329,9.646L579.51,349.37z"/>
	<path d="M602.329,332.936l5.631-0.261c1.257-0.058,2.356,0.085,3.298,0.429c0.943,0.344,1.708,0.862,2.295,1.556
		c0.588,0.692,1.033,1.506,1.34,2.442c0.306,0.937,0.484,2.004,0.541,3.207c0.043,0.951,0.006,1.827-0.113,2.627
		c-0.12,0.799-0.344,1.545-0.672,2.235c-0.327,0.692-0.752,1.284-1.272,1.776c-0.521,0.494-1.177,0.891-1.969,1.188
		c-0.791,0.298-1.695,0.472-2.709,0.519l-5.631,0.26L602.329,332.936z M605.271,335.157l0.521,11.262l2.457-0.112
		c1.515-0.07,2.627-0.572,3.34-1.505c0.711-0.932,1.021-2.368,0.933-4.312c-0.039-0.866-0.152-1.629-0.341-2.284
		c-0.187-0.656-0.463-1.233-0.83-1.731c-0.366-0.5-0.854-0.873-1.465-1.119c-0.608-0.244-1.328-0.349-2.156-0.311L605.271,335.157z"
		/>
	<path d="M625.389,347.688l-2.85,0.228l4.179-16.378l3.212-0.255l6.697,15.515l-3.025,0.24l-1.694-4.191l-5.503,0.438
		L625.389,347.688z M628.521,334.273l-0.105,0.008l-1.564,6.802l4.275-0.34L628.521,334.273z"/>
	<path d="M649.244,345.461l-2.818,0.314l-0.699-6.277l-6.384-9.027l3.146-0.352l4.313,6.439l0.094-0.01l2.824-7.236l3.075-0.342
		l-4.256,10.166L649.244,345.461z"/>
	<path d="M660.208,339.617l2.725-0.402c0.165,0.694,0.585,1.23,1.258,1.608c0.672,0.379,1.528,0.491,2.571,0.337
		c0.989-0.146,1.732-0.475,2.23-0.98c0.498-0.508,0.691-1.125,0.585-1.853c-0.085-0.571-0.352-0.998-0.799-1.279
		c-0.448-0.28-1.116-0.463-2.006-0.545l-2.631-0.239c-0.565-0.041-1.092-0.141-1.576-0.293c-0.484-0.154-0.938-0.371-1.364-0.652
		c-0.424-0.28-0.777-0.656-1.062-1.129c-0.282-0.471-0.471-1.02-0.562-1.646c-0.146-0.981-0.006-1.877,0.42-2.687
		s1.045-1.455,1.857-1.938c0.812-0.483,1.748-0.804,2.809-0.96c1.066-0.158,2.057-0.118,2.973,0.117
		c0.915,0.236,1.684,0.674,2.304,1.312c0.618,0.639,1.006,1.428,1.16,2.368l-2.667,0.396c-0.154-0.682-0.532-1.205-1.133-1.574
		c-0.6-0.369-1.374-0.484-2.324-0.344c-0.889,0.132-1.571,0.436-2.051,0.912c-0.479,0.478-0.666,1.064-0.562,1.761
		c0.15,1.026,0.979,1.604,2.481,1.729l2.643,0.236c0.653,0.054,1.237,0.152,1.75,0.299c0.511,0.146,0.989,0.358,1.438,0.641
		c0.448,0.281,0.814,0.662,1.1,1.142c0.283,0.479,0.475,1.051,0.572,1.716c0.227,1.53-0.158,2.811-1.154,3.844
		c-0.997,1.03-2.428,1.686-4.289,1.959c-0.857,0.127-1.646,0.146-2.367,0.055c-0.721-0.092-1.326-0.258-1.815-0.502
		c-0.489-0.243-0.917-0.553-1.279-0.93c-0.364-0.378-0.642-0.771-0.832-1.181C660.416,340.505,660.283,340.072,660.208,339.617z"/>
</g>
<path d="M471.957,333.551c0,1.844-1.496,3.344-3.344,3.344s-3.345-1.5-3.345-3.344c0-1.848,1.497-3.344,3.345-3.344
	S471.957,331.703,471.957,333.551z"/>
<polygon points="689.596,336.812 685.365,330.289 681.227,336.812 "/>
</svg>
